%TF.GenerationSoftware,KiCad,Pcbnew,9.0.7*%
%TF.CreationDate,2026-02-18T14:41:55-05:00*%
%TF.ProjectId,Plant_Saver_Kicad,506c616e-745f-4536-9176-65725f4b6963,rev?*%
%TF.SameCoordinates,Original*%
%TF.FileFunction,Paste,Top*%
%TF.FilePolarity,Positive*%
%FSLAX46Y46*%
G04 Gerber Fmt 4.6, Leading zero omitted, Abs format (unit mm)*
G04 Created by KiCad (PCBNEW 9.0.7) date 2026-02-18 14:41:55*
%MOMM*%
%LPD*%
G01*
G04 APERTURE LIST*
G04 Aperture macros list*
%AMRoundRect*
0 Rectangle with rounded corners*
0 $1 Rounding radius*
0 $2 $3 $4 $5 $6 $7 $8 $9 X,Y pos of 4 corners*
0 Add a 4 corners polygon primitive as box body*
4,1,4,$2,$3,$4,$5,$6,$7,$8,$9,$2,$3,0*
0 Add four circle primitives for the rounded corners*
1,1,$1+$1,$2,$3*
1,1,$1+$1,$4,$5*
1,1,$1+$1,$6,$7*
1,1,$1+$1,$8,$9*
0 Add four rect primitives between the rounded corners*
20,1,$1+$1,$2,$3,$4,$5,0*
20,1,$1+$1,$4,$5,$6,$7,0*
20,1,$1+$1,$6,$7,$8,$9,0*
20,1,$1+$1,$8,$9,$2,$3,0*%
G04 Aperture macros list end*
%ADD10RoundRect,0.250000X0.412500X0.650000X-0.412500X0.650000X-0.412500X-0.650000X0.412500X-0.650000X0*%
%ADD11RoundRect,0.087500X0.725000X0.087500X-0.725000X0.087500X-0.725000X-0.087500X0.725000X-0.087500X0*%
%ADD12RoundRect,0.250000X0.625000X-0.400000X0.625000X0.400000X-0.625000X0.400000X-0.625000X-0.400000X0*%
%ADD13RoundRect,0.162500X-0.162500X0.447500X-0.162500X-0.447500X0.162500X-0.447500X0.162500X0.447500X0*%
%ADD14RoundRect,0.250000X-0.650000X0.412500X-0.650000X-0.412500X0.650000X-0.412500X0.650000X0.412500X0*%
%ADD15R,2.209800X1.701800*%
%ADD16RoundRect,0.087500X-0.087500X0.725000X-0.087500X-0.725000X0.087500X-0.725000X0.087500X0.725000X0*%
%ADD17RoundRect,0.250000X-0.625000X0.400000X-0.625000X-0.400000X0.625000X-0.400000X0.625000X0.400000X0*%
%ADD18RoundRect,0.250000X-0.412500X-0.650000X0.412500X-0.650000X0.412500X0.650000X-0.412500X0.650000X0*%
%ADD19RoundRect,0.162500X0.162500X-0.447500X0.162500X0.447500X-0.162500X0.447500X-0.162500X-0.447500X0*%
%ADD20R,1.498600X0.889000*%
%ADD21R,0.889000X1.498600*%
%ADD22R,0.889000X0.889000*%
%ADD23RoundRect,0.162500X-0.447500X-0.162500X0.447500X-0.162500X0.447500X0.162500X-0.447500X0.162500X0*%
%ADD24RoundRect,0.150000X0.150000X0.625000X-0.150000X0.625000X-0.150000X-0.625000X0.150000X-0.625000X0*%
%ADD25RoundRect,0.250000X0.350000X0.650000X-0.350000X0.650000X-0.350000X-0.650000X0.350000X-0.650000X0*%
%ADD26RoundRect,0.250000X0.400000X0.625000X-0.400000X0.625000X-0.400000X-0.625000X0.400000X-0.625000X0*%
%ADD27RoundRect,0.250000X-0.400000X-0.625000X0.400000X-0.625000X0.400000X0.625000X-0.400000X0.625000X0*%
%ADD28R,0.457200X1.524000*%
%ADD29RoundRect,0.250000X0.650000X-0.412500X0.650000X0.412500X-0.650000X0.412500X-0.650000X-0.412500X0*%
%ADD30RoundRect,0.162500X0.447500X0.162500X-0.447500X0.162500X-0.447500X-0.162500X0.447500X-0.162500X0*%
%ADD31R,1.219200X3.149600*%
%ADD32R,1.219200X0.863600*%
%ADD33R,1.650000X0.800000*%
%ADD34RoundRect,0.162500X0.617500X0.162500X-0.617500X0.162500X-0.617500X-0.162500X0.617500X-0.162500X0*%
%ADD35R,0.800000X1.750000*%
%ADD36R,1.300000X1.500000*%
%ADD37R,1.500000X1.500000*%
%ADD38R,0.800000X1.500000*%
%ADD39R,0.800000X1.400000*%
%ADD40R,1.000000X1.550000*%
%ADD41R,1.450000X1.000000*%
%ADD42R,0.939800X2.616200*%
%ADD43R,10.464800X10.820400*%
G04 APERTURE END LIST*
D10*
%TO.C,C8*%
X171162500Y-118500000D03*
X168037500Y-118500000D03*
%TD*%
D11*
%TO.C,U13*%
X172850000Y-68750000D03*
X172850000Y-68250000D03*
X172850000Y-67750000D03*
X172850000Y-67250000D03*
X172850000Y-66750000D03*
X168625000Y-66750000D03*
X168625000Y-67250000D03*
X168625000Y-67750000D03*
X168625000Y-68250000D03*
X168625000Y-68750000D03*
%TD*%
D12*
%TO.C,R24*%
X120661000Y-129853000D03*
X120661000Y-126753000D03*
%TD*%
D13*
%TO.C,Q6*%
X164100000Y-73560000D03*
X165050000Y-70940000D03*
X163150000Y-70940000D03*
%TD*%
D14*
%TO.C,C12*%
X175600000Y-69937500D03*
X175600000Y-73062500D03*
%TD*%
D15*
%TO.C,U4*%
X120301800Y-68000000D03*
X116898200Y-68000000D03*
%TD*%
D16*
%TO.C,U15*%
X174600000Y-86387500D03*
X174100000Y-86387500D03*
X173600000Y-86387500D03*
X173100000Y-86387500D03*
X172600000Y-86387500D03*
X172600000Y-90612500D03*
X173100000Y-90612500D03*
X173600000Y-90612500D03*
X174100000Y-90612500D03*
X174600000Y-90612500D03*
%TD*%
D17*
%TO.C,R21*%
X120661000Y-131706000D03*
X120661000Y-134806000D03*
%TD*%
D18*
%TO.C,C13*%
X110037500Y-99000000D03*
X113162500Y-99000000D03*
%TD*%
D10*
%TO.C,C10*%
X117397500Y-126906000D03*
X114272500Y-126906000D03*
%TD*%
D17*
%TO.C,R9*%
X154600000Y-70700000D03*
X154600000Y-73800000D03*
%TD*%
D15*
%TO.C,U3*%
X120381800Y-64500000D03*
X116978200Y-64500000D03*
%TD*%
D19*
%TO.C,Q7*%
X167900000Y-70880000D03*
X166950000Y-73500000D03*
X168850000Y-73500000D03*
%TD*%
D10*
%TO.C,C15*%
X175162500Y-80000000D03*
X172037500Y-80000000D03*
%TD*%
D17*
%TO.C,R20*%
X122947000Y-131706000D03*
X122947000Y-134806000D03*
%TD*%
D20*
%TO.C,U5*%
X135349700Y-93239660D03*
X135349700Y-94509660D03*
X135349700Y-95779660D03*
X135349700Y-97049660D03*
X135349700Y-98319660D03*
X135349700Y-99589660D03*
X135349700Y-100859660D03*
X135349700Y-102129660D03*
X135349700Y-103399660D03*
X135349700Y-104669660D03*
X135349700Y-105939660D03*
X135349700Y-107209660D03*
X135349700Y-108479660D03*
X135349700Y-109749660D03*
D21*
X138385000Y-111000610D03*
X139655000Y-111000610D03*
X140925000Y-111000610D03*
X142195000Y-111000610D03*
X143465000Y-111000610D03*
X144735000Y-111000610D03*
X146005000Y-111000610D03*
X147275000Y-111000610D03*
X148545000Y-111000610D03*
X149815000Y-111000610D03*
D20*
X152850300Y-109749660D03*
X152850300Y-108479660D03*
X152850300Y-107209660D03*
X152850300Y-105939660D03*
X152850300Y-104669660D03*
X152850300Y-103399660D03*
X152850300Y-102129660D03*
X152850300Y-100859660D03*
X152850300Y-99589660D03*
X152850300Y-98319660D03*
X152850300Y-97049660D03*
X152850300Y-95779660D03*
X152850300Y-94509660D03*
X152850300Y-93239660D03*
D22*
X142598860Y-100961260D03*
X141199320Y-99561720D03*
X141199320Y-100961260D03*
X141199320Y-102360800D03*
X142598860Y-102360800D03*
X143998400Y-102360800D03*
X143998400Y-100961260D03*
X143998400Y-99561720D03*
X142598860Y-99561720D03*
%TD*%
D10*
%TO.C,C9*%
X117397500Y-129319000D03*
X114272500Y-129319000D03*
%TD*%
D23*
%TO.C,Q10*%
X169910000Y-81500000D03*
X167290000Y-80550000D03*
X167290000Y-82450000D03*
%TD*%
D24*
%TO.C,J4*%
X149800000Y-129875000D03*
X148800000Y-129875000D03*
X147800000Y-129875000D03*
X146800000Y-129875000D03*
D25*
X151100000Y-126000000D03*
X145500000Y-126000000D03*
%TD*%
D26*
%TO.C,R7*%
X181150000Y-79000000D03*
X178050000Y-79000000D03*
%TD*%
D10*
%TO.C,C6*%
X164662500Y-118500000D03*
X161537500Y-118500000D03*
%TD*%
D15*
%TO.C,U1*%
X120301800Y-71500000D03*
X116898200Y-71500000D03*
%TD*%
D27*
%TO.C,R6*%
X153401000Y-137573000D03*
X156501000Y-137573000D03*
%TD*%
D17*
%TO.C,R4*%
X131500000Y-114650000D03*
X131500000Y-117750000D03*
%TD*%
D28*
%TO.C,U16*%
X140174999Y-61274798D03*
X139525001Y-61274798D03*
X138874999Y-61274798D03*
X138225001Y-61274798D03*
X138225001Y-65361998D03*
X138874999Y-65361998D03*
X139525001Y-65361998D03*
X140174999Y-65361998D03*
%TD*%
D26*
%TO.C,R14*%
X165150000Y-78500000D03*
X162050000Y-78500000D03*
%TD*%
D29*
%TO.C,C4*%
X131600000Y-81562500D03*
X131600000Y-78437500D03*
%TD*%
D17*
%TO.C,R1*%
X136600000Y-78450000D03*
X136600000Y-81550000D03*
%TD*%
D30*
%TO.C,Q2*%
X175670000Y-118500000D03*
X178290000Y-119450000D03*
X178290000Y-117550000D03*
%TD*%
D12*
%TO.C,R23*%
X122947000Y-129853000D03*
X122947000Y-126753000D03*
%TD*%
D15*
%TO.C,U2*%
X120381800Y-61000000D03*
X116978200Y-61000000D03*
%TD*%
D29*
%TO.C,C16*%
X140600000Y-72062500D03*
X140600000Y-68937500D03*
%TD*%
D10*
%TO.C,C14*%
X175162500Y-83500000D03*
X172037500Y-83500000D03*
%TD*%
D31*
%TO.C,Q3*%
X159459100Y-66098500D03*
D32*
X166240900Y-66098500D03*
X166240900Y-68398500D03*
X166240900Y-63798500D03*
%TD*%
D33*
%TO.C,J9*%
X178345000Y-86600000D03*
X178345000Y-84600000D03*
X178345000Y-83350000D03*
X178345000Y-85600000D03*
X178345000Y-87600000D03*
X178345000Y-88850000D03*
%TD*%
D10*
%TO.C,C7*%
X171162500Y-116000000D03*
X168037500Y-116000000D03*
%TD*%
D14*
%TO.C,C3*%
X134100000Y-78437500D03*
X134100000Y-81562500D03*
%TD*%
D27*
%TO.C,R16*%
X161550000Y-116000000D03*
X164650000Y-116000000D03*
%TD*%
D23*
%TO.C,Q12*%
X159660000Y-62098500D03*
X157040000Y-61148500D03*
X157040000Y-63048500D03*
%TD*%
D12*
%TO.C,R22*%
X125233000Y-129853000D03*
X125233000Y-126753000D03*
%TD*%
D10*
%TO.C,C5*%
X165162500Y-81000000D03*
X162037500Y-81000000D03*
%TD*%
D15*
%TO.C,U11*%
X167801800Y-91500000D03*
X164398200Y-91500000D03*
%TD*%
D12*
%TO.C,R44*%
X137600000Y-72050000D03*
X137600000Y-68950000D03*
%TD*%
D34*
%TO.C,U10*%
X159100000Y-82400000D03*
X159100000Y-81450000D03*
X159100000Y-80500000D03*
X156400000Y-80500000D03*
X156400000Y-82400000D03*
%TD*%
D27*
%TO.C,R2*%
X168050000Y-121000000D03*
X171150000Y-121000000D03*
%TD*%
D17*
%TO.C,R19*%
X125233000Y-131706000D03*
X125233000Y-134806000D03*
%TD*%
D12*
%TO.C,R45*%
X152100000Y-73800000D03*
X152100000Y-70700000D03*
%TD*%
D35*
%TO.C,J11*%
X132447000Y-128375000D03*
X133547000Y-128375000D03*
X134647000Y-128375000D03*
X135747000Y-128375000D03*
X136847000Y-128375000D03*
X137947000Y-128375000D03*
X139047000Y-128375000D03*
X140147000Y-128375000D03*
D36*
X141347000Y-128500000D03*
D37*
X129997000Y-128500000D03*
D38*
X141597000Y-136100000D03*
D39*
X129647000Y-136750000D03*
D40*
X130047000Y-139175000D03*
D41*
X141272000Y-137600000D03*
%TD*%
D29*
%TO.C,C2*%
X139100000Y-81562500D03*
X139100000Y-78437500D03*
%TD*%
D26*
%TO.C,R3*%
X178150000Y-122000000D03*
X175050000Y-122000000D03*
%TD*%
D29*
%TO.C,C1*%
X141600000Y-81562500D03*
X141600000Y-78437500D03*
%TD*%
D23*
%TO.C,Q1*%
X178410000Y-114000000D03*
X175790000Y-113050000D03*
X175790000Y-114950000D03*
%TD*%
D15*
%TO.C,U9*%
X159801800Y-91500000D03*
X156398200Y-91500000D03*
%TD*%
D26*
%TO.C,R15*%
X165150000Y-83500000D03*
X162050000Y-83500000D03*
%TD*%
D23*
%TO.C,Q9*%
X169910000Y-77500000D03*
X167290000Y-76550000D03*
X167290000Y-78450000D03*
%TD*%
D26*
%TO.C,R8*%
X181150000Y-76500000D03*
X178050000Y-76500000D03*
%TD*%
D17*
%TO.C,R13*%
X157100000Y-70750000D03*
X157100000Y-73850000D03*
%TD*%
%TO.C,R10*%
X149600000Y-70700000D03*
X149600000Y-73800000D03*
%TD*%
D12*
%TO.C,R25*%
X118375000Y-134806000D03*
X118375000Y-131706000D03*
%TD*%
D14*
%TO.C,C11*%
X175600000Y-63437500D03*
X175600000Y-66562500D03*
%TD*%
D19*
%TO.C,Q5*%
X160350000Y-70940000D03*
X159400000Y-73560000D03*
X161300000Y-73560000D03*
%TD*%
D42*
%TO.C,U12*%
X161699999Y-112343900D03*
X163399998Y-112343900D03*
X165100000Y-112343900D03*
X166799999Y-112343900D03*
X168499998Y-112343900D03*
D43*
X165100000Y-104000000D03*
%TD*%
D13*
%TO.C,Q8*%
X171600000Y-74310000D03*
X172550000Y-71690000D03*
X170650000Y-71690000D03*
%TD*%
D31*
%TO.C,Q11*%
X156990900Y-66000000D03*
D32*
X150209100Y-66000000D03*
X150209100Y-63700000D03*
X150209100Y-68300000D03*
%TD*%
D23*
%TO.C,Q4*%
X170910000Y-62250000D03*
X168290000Y-61300000D03*
X168290000Y-63200000D03*
%TD*%
D27*
%TO.C,R5*%
X145019000Y-137700000D03*
X148119000Y-137700000D03*
%TD*%
M02*
