%TF.GenerationSoftware,KiCad,Pcbnew,9.0.7*%
%TF.CreationDate,2026-02-18T14:41:55-05:00*%
%TF.ProjectId,Plant_Saver_Kicad,506c616e-745f-4536-9176-65725f4b6963,rev?*%
%TF.SameCoordinates,Original*%
%TF.FileFunction,Legend,Bot*%
%TF.FilePolarity,Positive*%
%FSLAX46Y46*%
G04 Gerber Fmt 4.6, Leading zero omitted, Abs format (unit mm)*
G04 Created by KiCad (PCBNEW 9.0.7) date 2026-02-18 14:41:55*
%MOMM*%
%LPD*%
G01*
G04 APERTURE LIST*
%ADD10C,0.155000*%
%ADD11C,0.160000*%
%ADD12C,0.400000*%
%ADD13C,0.508000*%
%ADD14C,0.010000*%
G04 APERTURE END LIST*
D10*
X134500000Y-85000000D02*
X153600000Y-85000000D01*
X153600000Y-92200000D01*
X134500000Y-92200000D01*
X134500000Y-85000000D01*
D11*
X104595237Y-113955644D02*
X104595237Y-114955644D01*
X104595237Y-114955644D02*
X104928570Y-114241359D01*
X104928570Y-114241359D02*
X105261903Y-114955644D01*
X105261903Y-114955644D02*
X105261903Y-113955644D01*
X105595237Y-114955644D02*
X106166665Y-114955644D01*
X105880951Y-113955644D02*
X105880951Y-114955644D01*
X106499999Y-114955644D02*
X106499999Y-114146121D01*
X106499999Y-114146121D02*
X106547618Y-114050883D01*
X106547618Y-114050883D02*
X106595237Y-114003264D01*
X106595237Y-114003264D02*
X106690475Y-113955644D01*
X106690475Y-113955644D02*
X106880951Y-113955644D01*
X106880951Y-113955644D02*
X106976189Y-114003264D01*
X106976189Y-114003264D02*
X107023808Y-114050883D01*
X107023808Y-114050883D02*
X107071427Y-114146121D01*
X107071427Y-114146121D02*
X107071427Y-114955644D01*
X108499999Y-114955644D02*
X108690475Y-114955644D01*
X108690475Y-114955644D02*
X108785713Y-114908025D01*
X108785713Y-114908025D02*
X108880951Y-114812787D01*
X108880951Y-114812787D02*
X108928570Y-114622311D01*
X108928570Y-114622311D02*
X108928570Y-114288978D01*
X108928570Y-114288978D02*
X108880951Y-114098502D01*
X108880951Y-114098502D02*
X108785713Y-114003264D01*
X108785713Y-114003264D02*
X108690475Y-113955644D01*
X108690475Y-113955644D02*
X108499999Y-113955644D01*
X108499999Y-113955644D02*
X108404761Y-114003264D01*
X108404761Y-114003264D02*
X108309523Y-114098502D01*
X108309523Y-114098502D02*
X108261904Y-114288978D01*
X108261904Y-114288978D02*
X108261904Y-114622311D01*
X108261904Y-114622311D02*
X108309523Y-114812787D01*
X108309523Y-114812787D02*
X108404761Y-114908025D01*
X108404761Y-114908025D02*
X108499999Y-114955644D01*
X109357142Y-114622311D02*
X109357142Y-113622311D01*
X109357142Y-114574692D02*
X109452380Y-114622311D01*
X109452380Y-114622311D02*
X109642856Y-114622311D01*
X109642856Y-114622311D02*
X109738094Y-114574692D01*
X109738094Y-114574692D02*
X109785713Y-114527073D01*
X109785713Y-114527073D02*
X109833332Y-114431835D01*
X109833332Y-114431835D02*
X109833332Y-114146121D01*
X109833332Y-114146121D02*
X109785713Y-114050883D01*
X109785713Y-114050883D02*
X109738094Y-114003264D01*
X109738094Y-114003264D02*
X109642856Y-113955644D01*
X109642856Y-113955644D02*
X109452380Y-113955644D01*
X109452380Y-113955644D02*
X109357142Y-114003264D01*
X110642856Y-114003264D02*
X110547618Y-113955644D01*
X110547618Y-113955644D02*
X110357142Y-113955644D01*
X110357142Y-113955644D02*
X110261904Y-114003264D01*
X110261904Y-114003264D02*
X110214285Y-114098502D01*
X110214285Y-114098502D02*
X110214285Y-114479454D01*
X110214285Y-114479454D02*
X110261904Y-114574692D01*
X110261904Y-114574692D02*
X110357142Y-114622311D01*
X110357142Y-114622311D02*
X110547618Y-114622311D01*
X110547618Y-114622311D02*
X110642856Y-114574692D01*
X110642856Y-114574692D02*
X110690475Y-114479454D01*
X110690475Y-114479454D02*
X110690475Y-114384216D01*
X110690475Y-114384216D02*
X110214285Y-114288978D01*
X111119047Y-114622311D02*
X111119047Y-113955644D01*
X111119047Y-114527073D02*
X111166666Y-114574692D01*
X111166666Y-114574692D02*
X111261904Y-114622311D01*
X111261904Y-114622311D02*
X111404761Y-114622311D01*
X111404761Y-114622311D02*
X111499999Y-114574692D01*
X111499999Y-114574692D02*
X111547618Y-114479454D01*
X111547618Y-114479454D02*
X111547618Y-113955644D01*
X112738095Y-114003264D02*
X112880952Y-113955644D01*
X112880952Y-113955644D02*
X113119047Y-113955644D01*
X113119047Y-113955644D02*
X113214285Y-114003264D01*
X113214285Y-114003264D02*
X113261904Y-114050883D01*
X113261904Y-114050883D02*
X113309523Y-114146121D01*
X113309523Y-114146121D02*
X113309523Y-114241359D01*
X113309523Y-114241359D02*
X113261904Y-114336597D01*
X113261904Y-114336597D02*
X113214285Y-114384216D01*
X113214285Y-114384216D02*
X113119047Y-114431835D01*
X113119047Y-114431835D02*
X112928571Y-114479454D01*
X112928571Y-114479454D02*
X112833333Y-114527073D01*
X112833333Y-114527073D02*
X112785714Y-114574692D01*
X112785714Y-114574692D02*
X112738095Y-114669930D01*
X112738095Y-114669930D02*
X112738095Y-114765168D01*
X112738095Y-114765168D02*
X112785714Y-114860406D01*
X112785714Y-114860406D02*
X112833333Y-114908025D01*
X112833333Y-114908025D02*
X112928571Y-114955644D01*
X112928571Y-114955644D02*
X113166666Y-114955644D01*
X113166666Y-114955644D02*
X113309523Y-114908025D01*
X113880952Y-113955644D02*
X113785714Y-114003264D01*
X113785714Y-114003264D02*
X113738095Y-114050883D01*
X113738095Y-114050883D02*
X113690476Y-114146121D01*
X113690476Y-114146121D02*
X113690476Y-114431835D01*
X113690476Y-114431835D02*
X113738095Y-114527073D01*
X113738095Y-114527073D02*
X113785714Y-114574692D01*
X113785714Y-114574692D02*
X113880952Y-114622311D01*
X113880952Y-114622311D02*
X114023809Y-114622311D01*
X114023809Y-114622311D02*
X114119047Y-114574692D01*
X114119047Y-114574692D02*
X114166666Y-114527073D01*
X114166666Y-114527073D02*
X114214285Y-114431835D01*
X114214285Y-114431835D02*
X114214285Y-114146121D01*
X114214285Y-114146121D02*
X114166666Y-114050883D01*
X114166666Y-114050883D02*
X114119047Y-114003264D01*
X114119047Y-114003264D02*
X114023809Y-113955644D01*
X114023809Y-113955644D02*
X113880952Y-113955644D01*
X115071428Y-114622311D02*
X115071428Y-113955644D01*
X114642857Y-114622311D02*
X114642857Y-114098502D01*
X114642857Y-114098502D02*
X114690476Y-114003264D01*
X114690476Y-114003264D02*
X114785714Y-113955644D01*
X114785714Y-113955644D02*
X114928571Y-113955644D01*
X114928571Y-113955644D02*
X115023809Y-114003264D01*
X115023809Y-114003264D02*
X115071428Y-114050883D01*
X115547619Y-113955644D02*
X115547619Y-114622311D01*
X115547619Y-114431835D02*
X115595238Y-114527073D01*
X115595238Y-114527073D02*
X115642857Y-114574692D01*
X115642857Y-114574692D02*
X115738095Y-114622311D01*
X115738095Y-114622311D02*
X115833333Y-114622311D01*
X116595238Y-114003264D02*
X116500000Y-113955644D01*
X116500000Y-113955644D02*
X116309524Y-113955644D01*
X116309524Y-113955644D02*
X116214286Y-114003264D01*
X116214286Y-114003264D02*
X116166667Y-114050883D01*
X116166667Y-114050883D02*
X116119048Y-114146121D01*
X116119048Y-114146121D02*
X116119048Y-114431835D01*
X116119048Y-114431835D02*
X116166667Y-114527073D01*
X116166667Y-114527073D02*
X116214286Y-114574692D01*
X116214286Y-114574692D02*
X116309524Y-114622311D01*
X116309524Y-114622311D02*
X116500000Y-114622311D01*
X116500000Y-114622311D02*
X116595238Y-114574692D01*
X117404762Y-114003264D02*
X117309524Y-113955644D01*
X117309524Y-113955644D02*
X117119048Y-113955644D01*
X117119048Y-113955644D02*
X117023810Y-114003264D01*
X117023810Y-114003264D02*
X116976191Y-114098502D01*
X116976191Y-114098502D02*
X116976191Y-114479454D01*
X116976191Y-114479454D02*
X117023810Y-114574692D01*
X117023810Y-114574692D02*
X117119048Y-114622311D01*
X117119048Y-114622311D02*
X117309524Y-114622311D01*
X117309524Y-114622311D02*
X117404762Y-114574692D01*
X117404762Y-114574692D02*
X117452381Y-114479454D01*
X117452381Y-114479454D02*
X117452381Y-114384216D01*
X117452381Y-114384216D02*
X116976191Y-114288978D01*
X103642856Y-112345700D02*
X103642856Y-113345700D01*
X103642856Y-112869510D02*
X104214284Y-112869510D01*
X104214284Y-112345700D02*
X104214284Y-113345700D01*
X105119046Y-112345700D02*
X105119046Y-112869510D01*
X105119046Y-112869510D02*
X105071427Y-112964748D01*
X105071427Y-112964748D02*
X104976189Y-113012367D01*
X104976189Y-113012367D02*
X104785713Y-113012367D01*
X104785713Y-113012367D02*
X104690475Y-112964748D01*
X105119046Y-112393320D02*
X105023808Y-112345700D01*
X105023808Y-112345700D02*
X104785713Y-112345700D01*
X104785713Y-112345700D02*
X104690475Y-112393320D01*
X104690475Y-112393320D02*
X104642856Y-112488558D01*
X104642856Y-112488558D02*
X104642856Y-112583796D01*
X104642856Y-112583796D02*
X104690475Y-112679034D01*
X104690475Y-112679034D02*
X104785713Y-112726653D01*
X104785713Y-112726653D02*
X105023808Y-112726653D01*
X105023808Y-112726653D02*
X105119046Y-112774272D01*
X105595237Y-112345700D02*
X105595237Y-113012367D01*
X105595237Y-112821891D02*
X105642856Y-112917129D01*
X105642856Y-112917129D02*
X105690475Y-112964748D01*
X105690475Y-112964748D02*
X105785713Y-113012367D01*
X105785713Y-113012367D02*
X105880951Y-113012367D01*
X106642856Y-112345700D02*
X106642856Y-113345700D01*
X106642856Y-112393320D02*
X106547618Y-112345700D01*
X106547618Y-112345700D02*
X106357142Y-112345700D01*
X106357142Y-112345700D02*
X106261904Y-112393320D01*
X106261904Y-112393320D02*
X106214285Y-112440939D01*
X106214285Y-112440939D02*
X106166666Y-112536177D01*
X106166666Y-112536177D02*
X106166666Y-112821891D01*
X106166666Y-112821891D02*
X106214285Y-112917129D01*
X106214285Y-112917129D02*
X106261904Y-112964748D01*
X106261904Y-112964748D02*
X106357142Y-113012367D01*
X106357142Y-113012367D02*
X106547618Y-113012367D01*
X106547618Y-113012367D02*
X106642856Y-112964748D01*
X107023809Y-113012367D02*
X107214285Y-112345700D01*
X107214285Y-112345700D02*
X107404761Y-112821891D01*
X107404761Y-112821891D02*
X107595237Y-112345700D01*
X107595237Y-112345700D02*
X107785713Y-113012367D01*
X108595237Y-112345700D02*
X108595237Y-112869510D01*
X108595237Y-112869510D02*
X108547618Y-112964748D01*
X108547618Y-112964748D02*
X108452380Y-113012367D01*
X108452380Y-113012367D02*
X108261904Y-113012367D01*
X108261904Y-113012367D02*
X108166666Y-112964748D01*
X108595237Y-112393320D02*
X108499999Y-112345700D01*
X108499999Y-112345700D02*
X108261904Y-112345700D01*
X108261904Y-112345700D02*
X108166666Y-112393320D01*
X108166666Y-112393320D02*
X108119047Y-112488558D01*
X108119047Y-112488558D02*
X108119047Y-112583796D01*
X108119047Y-112583796D02*
X108166666Y-112679034D01*
X108166666Y-112679034D02*
X108261904Y-112726653D01*
X108261904Y-112726653D02*
X108499999Y-112726653D01*
X108499999Y-112726653D02*
X108595237Y-112774272D01*
X109071428Y-112345700D02*
X109071428Y-113012367D01*
X109071428Y-112821891D02*
X109119047Y-112917129D01*
X109119047Y-112917129D02*
X109166666Y-112964748D01*
X109166666Y-112964748D02*
X109261904Y-113012367D01*
X109261904Y-113012367D02*
X109357142Y-113012367D01*
X110071428Y-112393320D02*
X109976190Y-112345700D01*
X109976190Y-112345700D02*
X109785714Y-112345700D01*
X109785714Y-112345700D02*
X109690476Y-112393320D01*
X109690476Y-112393320D02*
X109642857Y-112488558D01*
X109642857Y-112488558D02*
X109642857Y-112869510D01*
X109642857Y-112869510D02*
X109690476Y-112964748D01*
X109690476Y-112964748D02*
X109785714Y-113012367D01*
X109785714Y-113012367D02*
X109976190Y-113012367D01*
X109976190Y-113012367D02*
X110071428Y-112964748D01*
X110071428Y-112964748D02*
X110119047Y-112869510D01*
X110119047Y-112869510D02*
X110119047Y-112774272D01*
X110119047Y-112774272D02*
X109642857Y-112679034D01*
X111309524Y-112869510D02*
X111642857Y-112869510D01*
X111785714Y-112345700D02*
X111309524Y-112345700D01*
X111309524Y-112345700D02*
X111309524Y-113345700D01*
X111309524Y-113345700D02*
X111785714Y-113345700D01*
X112214286Y-113012367D02*
X112214286Y-112345700D01*
X112214286Y-112917129D02*
X112261905Y-112964748D01*
X112261905Y-112964748D02*
X112357143Y-113012367D01*
X112357143Y-113012367D02*
X112500000Y-113012367D01*
X112500000Y-113012367D02*
X112595238Y-112964748D01*
X112595238Y-112964748D02*
X112642857Y-112869510D01*
X112642857Y-112869510D02*
X112642857Y-112345700D01*
X112976191Y-113012367D02*
X113357143Y-113012367D01*
X113119048Y-113345700D02*
X113119048Y-112488558D01*
X113119048Y-112488558D02*
X113166667Y-112393320D01*
X113166667Y-112393320D02*
X113261905Y-112345700D01*
X113261905Y-112345700D02*
X113357143Y-112345700D01*
X114071429Y-112393320D02*
X113976191Y-112345700D01*
X113976191Y-112345700D02*
X113785715Y-112345700D01*
X113785715Y-112345700D02*
X113690477Y-112393320D01*
X113690477Y-112393320D02*
X113642858Y-112488558D01*
X113642858Y-112488558D02*
X113642858Y-112869510D01*
X113642858Y-112869510D02*
X113690477Y-112964748D01*
X113690477Y-112964748D02*
X113785715Y-113012367D01*
X113785715Y-113012367D02*
X113976191Y-113012367D01*
X113976191Y-113012367D02*
X114071429Y-112964748D01*
X114071429Y-112964748D02*
X114119048Y-112869510D01*
X114119048Y-112869510D02*
X114119048Y-112774272D01*
X114119048Y-112774272D02*
X113642858Y-112679034D01*
X114547620Y-112345700D02*
X114547620Y-113012367D01*
X114547620Y-112821891D02*
X114595239Y-112917129D01*
X114595239Y-112917129D02*
X114642858Y-112964748D01*
X114642858Y-112964748D02*
X114738096Y-113012367D01*
X114738096Y-113012367D02*
X114833334Y-113012367D01*
X115166668Y-113012367D02*
X115166668Y-112012367D01*
X115166668Y-112964748D02*
X115261906Y-113012367D01*
X115261906Y-113012367D02*
X115452382Y-113012367D01*
X115452382Y-113012367D02*
X115547620Y-112964748D01*
X115547620Y-112964748D02*
X115595239Y-112917129D01*
X115595239Y-112917129D02*
X115642858Y-112821891D01*
X115642858Y-112821891D02*
X115642858Y-112536177D01*
X115642858Y-112536177D02*
X115595239Y-112440939D01*
X115595239Y-112440939D02*
X115547620Y-112393320D01*
X115547620Y-112393320D02*
X115452382Y-112345700D01*
X115452382Y-112345700D02*
X115261906Y-112345700D01*
X115261906Y-112345700D02*
X115166668Y-112393320D01*
X116071430Y-112345700D02*
X116071430Y-113012367D01*
X116071430Y-112821891D02*
X116119049Y-112917129D01*
X116119049Y-112917129D02*
X116166668Y-112964748D01*
X116166668Y-112964748D02*
X116261906Y-113012367D01*
X116261906Y-113012367D02*
X116357144Y-113012367D01*
X116690478Y-112345700D02*
X116690478Y-113012367D01*
X116690478Y-113345700D02*
X116642859Y-113298081D01*
X116642859Y-113298081D02*
X116690478Y-113250462D01*
X116690478Y-113250462D02*
X116738097Y-113298081D01*
X116738097Y-113298081D02*
X116690478Y-113345700D01*
X116690478Y-113345700D02*
X116690478Y-113250462D01*
X117119049Y-112393320D02*
X117214287Y-112345700D01*
X117214287Y-112345700D02*
X117404763Y-112345700D01*
X117404763Y-112345700D02*
X117500001Y-112393320D01*
X117500001Y-112393320D02*
X117547620Y-112488558D01*
X117547620Y-112488558D02*
X117547620Y-112536177D01*
X117547620Y-112536177D02*
X117500001Y-112631415D01*
X117500001Y-112631415D02*
X117404763Y-112679034D01*
X117404763Y-112679034D02*
X117261906Y-112679034D01*
X117261906Y-112679034D02*
X117166668Y-112726653D01*
X117166668Y-112726653D02*
X117119049Y-112821891D01*
X117119049Y-112821891D02*
X117119049Y-112869510D01*
X117119049Y-112869510D02*
X117166668Y-112964748D01*
X117166668Y-112964748D02*
X117261906Y-113012367D01*
X117261906Y-113012367D02*
X117404763Y-113012367D01*
X117404763Y-113012367D02*
X117500001Y-112964748D01*
X118357144Y-112393320D02*
X118261906Y-112345700D01*
X118261906Y-112345700D02*
X118071430Y-112345700D01*
X118071430Y-112345700D02*
X117976192Y-112393320D01*
X117976192Y-112393320D02*
X117928573Y-112488558D01*
X117928573Y-112488558D02*
X117928573Y-112869510D01*
X117928573Y-112869510D02*
X117976192Y-112964748D01*
X117976192Y-112964748D02*
X118071430Y-113012367D01*
X118071430Y-113012367D02*
X118261906Y-113012367D01*
X118261906Y-113012367D02*
X118357144Y-112964748D01*
X118357144Y-112964748D02*
X118404763Y-112869510D01*
X118404763Y-112869510D02*
X118404763Y-112774272D01*
X118404763Y-112774272D02*
X117928573Y-112679034D01*
X108714286Y-110735756D02*
X108619048Y-110783376D01*
X108619048Y-110783376D02*
X108571429Y-110830995D01*
X108571429Y-110830995D02*
X108523810Y-110926233D01*
X108523810Y-110926233D02*
X108523810Y-111211947D01*
X108523810Y-111211947D02*
X108571429Y-111307185D01*
X108571429Y-111307185D02*
X108619048Y-111354804D01*
X108619048Y-111354804D02*
X108714286Y-111402423D01*
X108714286Y-111402423D02*
X108857143Y-111402423D01*
X108857143Y-111402423D02*
X108952381Y-111354804D01*
X108952381Y-111354804D02*
X109000000Y-111307185D01*
X109000000Y-111307185D02*
X109047619Y-111211947D01*
X109047619Y-111211947D02*
X109047619Y-110926233D01*
X109047619Y-110926233D02*
X109000000Y-110830995D01*
X109000000Y-110830995D02*
X108952381Y-110783376D01*
X108952381Y-110783376D02*
X108857143Y-110735756D01*
X108857143Y-110735756D02*
X108714286Y-110735756D01*
X109428572Y-110783376D02*
X109523810Y-110735756D01*
X109523810Y-110735756D02*
X109714286Y-110735756D01*
X109714286Y-110735756D02*
X109809524Y-110783376D01*
X109809524Y-110783376D02*
X109857143Y-110878614D01*
X109857143Y-110878614D02*
X109857143Y-110926233D01*
X109857143Y-110926233D02*
X109809524Y-111021471D01*
X109809524Y-111021471D02*
X109714286Y-111069090D01*
X109714286Y-111069090D02*
X109571429Y-111069090D01*
X109571429Y-111069090D02*
X109476191Y-111116709D01*
X109476191Y-111116709D02*
X109428572Y-111211947D01*
X109428572Y-111211947D02*
X109428572Y-111259566D01*
X109428572Y-111259566D02*
X109476191Y-111354804D01*
X109476191Y-111354804D02*
X109571429Y-111402423D01*
X109571429Y-111402423D02*
X109714286Y-111402423D01*
X109714286Y-111402423D02*
X109809524Y-111354804D01*
X110285715Y-110735756D02*
X110285715Y-111735756D01*
X110714286Y-110735756D02*
X110714286Y-111259566D01*
X110714286Y-111259566D02*
X110666667Y-111354804D01*
X110666667Y-111354804D02*
X110571429Y-111402423D01*
X110571429Y-111402423D02*
X110428572Y-111402423D01*
X110428572Y-111402423D02*
X110333334Y-111354804D01*
X110333334Y-111354804D02*
X110285715Y-111307185D01*
X111571429Y-110783376D02*
X111476191Y-110735756D01*
X111476191Y-110735756D02*
X111285715Y-110735756D01*
X111285715Y-110735756D02*
X111190477Y-110783376D01*
X111190477Y-110783376D02*
X111142858Y-110878614D01*
X111142858Y-110878614D02*
X111142858Y-111259566D01*
X111142858Y-111259566D02*
X111190477Y-111354804D01*
X111190477Y-111354804D02*
X111285715Y-111402423D01*
X111285715Y-111402423D02*
X111476191Y-111402423D01*
X111476191Y-111402423D02*
X111571429Y-111354804D01*
X111571429Y-111354804D02*
X111619048Y-111259566D01*
X111619048Y-111259566D02*
X111619048Y-111164328D01*
X111619048Y-111164328D02*
X111142858Y-111069090D01*
X112047620Y-110830995D02*
X112095239Y-110783376D01*
X112095239Y-110783376D02*
X112047620Y-110735756D01*
X112047620Y-110735756D02*
X112000001Y-110783376D01*
X112000001Y-110783376D02*
X112047620Y-110830995D01*
X112047620Y-110830995D02*
X112047620Y-110735756D01*
X112523810Y-110735756D02*
X112523810Y-111402423D01*
X112523810Y-111735756D02*
X112476191Y-111688137D01*
X112476191Y-111688137D02*
X112523810Y-111640518D01*
X112523810Y-111640518D02*
X112571429Y-111688137D01*
X112571429Y-111688137D02*
X112523810Y-111735756D01*
X112523810Y-111735756D02*
X112523810Y-111640518D01*
X113142857Y-110735756D02*
X113047619Y-110783376D01*
X113047619Y-110783376D02*
X113000000Y-110830995D01*
X113000000Y-110830995D02*
X112952381Y-110926233D01*
X112952381Y-110926233D02*
X112952381Y-111211947D01*
X112952381Y-111211947D02*
X113000000Y-111307185D01*
X113000000Y-111307185D02*
X113047619Y-111354804D01*
X113047619Y-111354804D02*
X113142857Y-111402423D01*
X113142857Y-111402423D02*
X113285714Y-111402423D01*
X113285714Y-111402423D02*
X113380952Y-111354804D01*
X113380952Y-111354804D02*
X113428571Y-111307185D01*
X113428571Y-111307185D02*
X113476190Y-111211947D01*
X113476190Y-111211947D02*
X113476190Y-110926233D01*
X113476190Y-110926233D02*
X113428571Y-110830995D01*
X113428571Y-110830995D02*
X113380952Y-110783376D01*
X113380952Y-110783376D02*
X113285714Y-110735756D01*
X113285714Y-110735756D02*
X113142857Y-110735756D01*
D12*
X103838095Y-131095561D02*
X103838095Y-133095561D01*
X103838095Y-133095561D02*
X104600000Y-133095561D01*
X104600000Y-133095561D02*
X104790476Y-133000323D01*
X104790476Y-133000323D02*
X104885714Y-132905085D01*
X104885714Y-132905085D02*
X104980952Y-132714609D01*
X104980952Y-132714609D02*
X104980952Y-132428895D01*
X104980952Y-132428895D02*
X104885714Y-132238419D01*
X104885714Y-132238419D02*
X104790476Y-132143180D01*
X104790476Y-132143180D02*
X104600000Y-132047942D01*
X104600000Y-132047942D02*
X103838095Y-132047942D01*
X106123809Y-131095561D02*
X105933333Y-131190800D01*
X105933333Y-131190800D02*
X105838095Y-131381276D01*
X105838095Y-131381276D02*
X105838095Y-133095561D01*
X107742857Y-131095561D02*
X107742857Y-132143180D01*
X107742857Y-132143180D02*
X107647619Y-132333657D01*
X107647619Y-132333657D02*
X107457143Y-132428895D01*
X107457143Y-132428895D02*
X107076190Y-132428895D01*
X107076190Y-132428895D02*
X106885714Y-132333657D01*
X107742857Y-131190800D02*
X107552381Y-131095561D01*
X107552381Y-131095561D02*
X107076190Y-131095561D01*
X107076190Y-131095561D02*
X106885714Y-131190800D01*
X106885714Y-131190800D02*
X106790476Y-131381276D01*
X106790476Y-131381276D02*
X106790476Y-131571752D01*
X106790476Y-131571752D02*
X106885714Y-131762228D01*
X106885714Y-131762228D02*
X107076190Y-131857466D01*
X107076190Y-131857466D02*
X107552381Y-131857466D01*
X107552381Y-131857466D02*
X107742857Y-131952704D01*
X108695238Y-132428895D02*
X108695238Y-131095561D01*
X108695238Y-132238419D02*
X108790476Y-132333657D01*
X108790476Y-132333657D02*
X108980952Y-132428895D01*
X108980952Y-132428895D02*
X109266667Y-132428895D01*
X109266667Y-132428895D02*
X109457143Y-132333657D01*
X109457143Y-132333657D02*
X109552381Y-132143180D01*
X109552381Y-132143180D02*
X109552381Y-131095561D01*
X110219048Y-132428895D02*
X110980952Y-132428895D01*
X110504762Y-133095561D02*
X110504762Y-131381276D01*
X110504762Y-131381276D02*
X110600000Y-131190800D01*
X110600000Y-131190800D02*
X110790476Y-131095561D01*
X110790476Y-131095561D02*
X110980952Y-131095561D01*
X111647619Y-131857466D02*
X113171429Y-131857466D01*
X114028571Y-131190800D02*
X114314285Y-131095561D01*
X114314285Y-131095561D02*
X114790476Y-131095561D01*
X114790476Y-131095561D02*
X114980952Y-131190800D01*
X114980952Y-131190800D02*
X115076190Y-131286038D01*
X115076190Y-131286038D02*
X115171428Y-131476514D01*
X115171428Y-131476514D02*
X115171428Y-131666990D01*
X115171428Y-131666990D02*
X115076190Y-131857466D01*
X115076190Y-131857466D02*
X114980952Y-131952704D01*
X114980952Y-131952704D02*
X114790476Y-132047942D01*
X114790476Y-132047942D02*
X114409523Y-132143180D01*
X114409523Y-132143180D02*
X114219047Y-132238419D01*
X114219047Y-132238419D02*
X114123809Y-132333657D01*
X114123809Y-132333657D02*
X114028571Y-132524133D01*
X114028571Y-132524133D02*
X114028571Y-132714609D01*
X114028571Y-132714609D02*
X114123809Y-132905085D01*
X114123809Y-132905085D02*
X114219047Y-133000323D01*
X114219047Y-133000323D02*
X114409523Y-133095561D01*
X114409523Y-133095561D02*
X114885714Y-133095561D01*
X114885714Y-133095561D02*
X115171428Y-133000323D01*
X116885714Y-131095561D02*
X116885714Y-132143180D01*
X116885714Y-132143180D02*
X116790476Y-132333657D01*
X116790476Y-132333657D02*
X116600000Y-132428895D01*
X116600000Y-132428895D02*
X116219047Y-132428895D01*
X116219047Y-132428895D02*
X116028571Y-132333657D01*
X116885714Y-131190800D02*
X116695238Y-131095561D01*
X116695238Y-131095561D02*
X116219047Y-131095561D01*
X116219047Y-131095561D02*
X116028571Y-131190800D01*
X116028571Y-131190800D02*
X115933333Y-131381276D01*
X115933333Y-131381276D02*
X115933333Y-131571752D01*
X115933333Y-131571752D02*
X116028571Y-131762228D01*
X116028571Y-131762228D02*
X116219047Y-131857466D01*
X116219047Y-131857466D02*
X116695238Y-131857466D01*
X116695238Y-131857466D02*
X116885714Y-131952704D01*
X117647619Y-132428895D02*
X118123809Y-131095561D01*
X118123809Y-131095561D02*
X118600000Y-132428895D01*
X120123810Y-131190800D02*
X119933334Y-131095561D01*
X119933334Y-131095561D02*
X119552381Y-131095561D01*
X119552381Y-131095561D02*
X119361905Y-131190800D01*
X119361905Y-131190800D02*
X119266667Y-131381276D01*
X119266667Y-131381276D02*
X119266667Y-132143180D01*
X119266667Y-132143180D02*
X119361905Y-132333657D01*
X119361905Y-132333657D02*
X119552381Y-132428895D01*
X119552381Y-132428895D02*
X119933334Y-132428895D01*
X119933334Y-132428895D02*
X120123810Y-132333657D01*
X120123810Y-132333657D02*
X120219048Y-132143180D01*
X120219048Y-132143180D02*
X120219048Y-131952704D01*
X120219048Y-131952704D02*
X119266667Y-131762228D01*
X121076191Y-131095561D02*
X121076191Y-132428895D01*
X121076191Y-132047942D02*
X121171429Y-132238419D01*
X121171429Y-132238419D02*
X121266667Y-132333657D01*
X121266667Y-132333657D02*
X121457143Y-132428895D01*
X121457143Y-132428895D02*
X121647620Y-132428895D01*
D11*
X106261903Y-129589398D02*
X106404760Y-129541779D01*
X106404760Y-129541779D02*
X106452379Y-129494160D01*
X106452379Y-129494160D02*
X106499998Y-129398922D01*
X106499998Y-129398922D02*
X106499998Y-129256065D01*
X106499998Y-129256065D02*
X106452379Y-129160827D01*
X106452379Y-129160827D02*
X106404760Y-129113208D01*
X106404760Y-129113208D02*
X106309522Y-129065588D01*
X106309522Y-129065588D02*
X105928570Y-129065588D01*
X105928570Y-129065588D02*
X105928570Y-130065588D01*
X105928570Y-130065588D02*
X106261903Y-130065588D01*
X106261903Y-130065588D02*
X106357141Y-130017969D01*
X106357141Y-130017969D02*
X106404760Y-129970350D01*
X106404760Y-129970350D02*
X106452379Y-129875112D01*
X106452379Y-129875112D02*
X106452379Y-129779874D01*
X106452379Y-129779874D02*
X106404760Y-129684636D01*
X106404760Y-129684636D02*
X106357141Y-129637017D01*
X106357141Y-129637017D02*
X106261903Y-129589398D01*
X106261903Y-129589398D02*
X105928570Y-129589398D01*
X106928570Y-129065588D02*
X106928570Y-129732255D01*
X106928570Y-129541779D02*
X106976189Y-129637017D01*
X106976189Y-129637017D02*
X107023808Y-129684636D01*
X107023808Y-129684636D02*
X107119046Y-129732255D01*
X107119046Y-129732255D02*
X107214284Y-129732255D01*
X107976189Y-129065588D02*
X107976189Y-129589398D01*
X107976189Y-129589398D02*
X107928570Y-129684636D01*
X107928570Y-129684636D02*
X107833332Y-129732255D01*
X107833332Y-129732255D02*
X107642856Y-129732255D01*
X107642856Y-129732255D02*
X107547618Y-129684636D01*
X107976189Y-129113208D02*
X107880951Y-129065588D01*
X107880951Y-129065588D02*
X107642856Y-129065588D01*
X107642856Y-129065588D02*
X107547618Y-129113208D01*
X107547618Y-129113208D02*
X107499999Y-129208446D01*
X107499999Y-129208446D02*
X107499999Y-129303684D01*
X107499999Y-129303684D02*
X107547618Y-129398922D01*
X107547618Y-129398922D02*
X107642856Y-129446541D01*
X107642856Y-129446541D02*
X107880951Y-129446541D01*
X107880951Y-129446541D02*
X107976189Y-129494160D01*
X108452380Y-129732255D02*
X108452380Y-129065588D01*
X108452380Y-129637017D02*
X108499999Y-129684636D01*
X108499999Y-129684636D02*
X108595237Y-129732255D01*
X108595237Y-129732255D02*
X108738094Y-129732255D01*
X108738094Y-129732255D02*
X108833332Y-129684636D01*
X108833332Y-129684636D02*
X108880951Y-129589398D01*
X108880951Y-129589398D02*
X108880951Y-129065588D01*
X109785713Y-129065588D02*
X109785713Y-130065588D01*
X109785713Y-129113208D02*
X109690475Y-129065588D01*
X109690475Y-129065588D02*
X109499999Y-129065588D01*
X109499999Y-129065588D02*
X109404761Y-129113208D01*
X109404761Y-129113208D02*
X109357142Y-129160827D01*
X109357142Y-129160827D02*
X109309523Y-129256065D01*
X109309523Y-129256065D02*
X109309523Y-129541779D01*
X109309523Y-129541779D02*
X109357142Y-129637017D01*
X109357142Y-129637017D02*
X109404761Y-129684636D01*
X109404761Y-129684636D02*
X109499999Y-129732255D01*
X109499999Y-129732255D02*
X109690475Y-129732255D01*
X109690475Y-129732255D02*
X109785713Y-129684636D01*
X110404761Y-129065588D02*
X110309523Y-129113208D01*
X110309523Y-129113208D02*
X110261904Y-129160827D01*
X110261904Y-129160827D02*
X110214285Y-129256065D01*
X110214285Y-129256065D02*
X110214285Y-129541779D01*
X110214285Y-129541779D02*
X110261904Y-129637017D01*
X110261904Y-129637017D02*
X110309523Y-129684636D01*
X110309523Y-129684636D02*
X110404761Y-129732255D01*
X110404761Y-129732255D02*
X110547618Y-129732255D01*
X110547618Y-129732255D02*
X110642856Y-129684636D01*
X110642856Y-129684636D02*
X110690475Y-129637017D01*
X110690475Y-129637017D02*
X110738094Y-129541779D01*
X110738094Y-129541779D02*
X110738094Y-129256065D01*
X110738094Y-129256065D02*
X110690475Y-129160827D01*
X110690475Y-129160827D02*
X110642856Y-129113208D01*
X110642856Y-129113208D02*
X110547618Y-129065588D01*
X110547618Y-129065588D02*
X110404761Y-129065588D01*
X111166666Y-129732255D02*
X111166666Y-129065588D01*
X111166666Y-129637017D02*
X111214285Y-129684636D01*
X111214285Y-129684636D02*
X111309523Y-129732255D01*
X111309523Y-129732255D02*
X111452380Y-129732255D01*
X111452380Y-129732255D02*
X111547618Y-129684636D01*
X111547618Y-129684636D02*
X111595237Y-129589398D01*
X111595237Y-129589398D02*
X111595237Y-129065588D01*
X112833333Y-129589398D02*
X113166666Y-129589398D01*
X113309523Y-129065588D02*
X112833333Y-129065588D01*
X112833333Y-129065588D02*
X112833333Y-130065588D01*
X112833333Y-130065588D02*
X113309523Y-130065588D01*
X114166666Y-129065588D02*
X114166666Y-129589398D01*
X114166666Y-129589398D02*
X114119047Y-129684636D01*
X114119047Y-129684636D02*
X114023809Y-129732255D01*
X114023809Y-129732255D02*
X113833333Y-129732255D01*
X113833333Y-129732255D02*
X113738095Y-129684636D01*
X114166666Y-129113208D02*
X114071428Y-129065588D01*
X114071428Y-129065588D02*
X113833333Y-129065588D01*
X113833333Y-129065588D02*
X113738095Y-129113208D01*
X113738095Y-129113208D02*
X113690476Y-129208446D01*
X113690476Y-129208446D02*
X113690476Y-129303684D01*
X113690476Y-129303684D02*
X113738095Y-129398922D01*
X113738095Y-129398922D02*
X113833333Y-129446541D01*
X113833333Y-129446541D02*
X114071428Y-129446541D01*
X114071428Y-129446541D02*
X114166666Y-129494160D01*
X114642857Y-129065588D02*
X114642857Y-129732255D01*
X114642857Y-129541779D02*
X114690476Y-129637017D01*
X114690476Y-129637017D02*
X114738095Y-129684636D01*
X114738095Y-129684636D02*
X114833333Y-129732255D01*
X114833333Y-129732255D02*
X114928571Y-129732255D01*
X115404762Y-129065588D02*
X115309524Y-129113208D01*
X115309524Y-129113208D02*
X115261905Y-129208446D01*
X115261905Y-129208446D02*
X115261905Y-130065588D01*
X115690477Y-129732255D02*
X115928572Y-129065588D01*
X116166667Y-129732255D02*
X115928572Y-129065588D01*
X115928572Y-129065588D02*
X115833334Y-128827493D01*
X115833334Y-128827493D02*
X115785715Y-128779874D01*
X115785715Y-128779874D02*
X115690477Y-128732255D01*
X104880951Y-127455644D02*
X104880951Y-128455644D01*
X104880951Y-128455644D02*
X105119046Y-128455644D01*
X105119046Y-128455644D02*
X105261903Y-128408025D01*
X105261903Y-128408025D02*
X105357141Y-128312787D01*
X105357141Y-128312787D02*
X105404760Y-128217549D01*
X105404760Y-128217549D02*
X105452379Y-128027073D01*
X105452379Y-128027073D02*
X105452379Y-127884216D01*
X105452379Y-127884216D02*
X105404760Y-127693740D01*
X105404760Y-127693740D02*
X105357141Y-127598502D01*
X105357141Y-127598502D02*
X105261903Y-127503264D01*
X105261903Y-127503264D02*
X105119046Y-127455644D01*
X105119046Y-127455644D02*
X104880951Y-127455644D01*
X106023808Y-127455644D02*
X105928570Y-127503264D01*
X105928570Y-127503264D02*
X105880951Y-127550883D01*
X105880951Y-127550883D02*
X105833332Y-127646121D01*
X105833332Y-127646121D02*
X105833332Y-127931835D01*
X105833332Y-127931835D02*
X105880951Y-128027073D01*
X105880951Y-128027073D02*
X105928570Y-128074692D01*
X105928570Y-128074692D02*
X106023808Y-128122311D01*
X106023808Y-128122311D02*
X106166665Y-128122311D01*
X106166665Y-128122311D02*
X106261903Y-128074692D01*
X106261903Y-128074692D02*
X106309522Y-128027073D01*
X106309522Y-128027073D02*
X106357141Y-127931835D01*
X106357141Y-127931835D02*
X106357141Y-127646121D01*
X106357141Y-127646121D02*
X106309522Y-127550883D01*
X106309522Y-127550883D02*
X106261903Y-127503264D01*
X106261903Y-127503264D02*
X106166665Y-127455644D01*
X106166665Y-127455644D02*
X106023808Y-127455644D01*
X106785713Y-128122311D02*
X106785713Y-127455644D01*
X106785713Y-128027073D02*
X106833332Y-128074692D01*
X106833332Y-128074692D02*
X106928570Y-128122311D01*
X106928570Y-128122311D02*
X107071427Y-128122311D01*
X107071427Y-128122311D02*
X107166665Y-128074692D01*
X107166665Y-128074692D02*
X107214284Y-127979454D01*
X107214284Y-127979454D02*
X107214284Y-127455644D01*
X107833332Y-127455644D02*
X107738094Y-127503264D01*
X107738094Y-127503264D02*
X107690475Y-127550883D01*
X107690475Y-127550883D02*
X107642856Y-127646121D01*
X107642856Y-127646121D02*
X107642856Y-127931835D01*
X107642856Y-127931835D02*
X107690475Y-128027073D01*
X107690475Y-128027073D02*
X107738094Y-128074692D01*
X107738094Y-128074692D02*
X107833332Y-128122311D01*
X107833332Y-128122311D02*
X107976189Y-128122311D01*
X107976189Y-128122311D02*
X108071427Y-128074692D01*
X108071427Y-128074692D02*
X108119046Y-128027073D01*
X108119046Y-128027073D02*
X108166665Y-127931835D01*
X108166665Y-127931835D02*
X108166665Y-127646121D01*
X108166665Y-127646121D02*
X108119046Y-127550883D01*
X108119046Y-127550883D02*
X108071427Y-127503264D01*
X108071427Y-127503264D02*
X107976189Y-127455644D01*
X107976189Y-127455644D02*
X107833332Y-127455644D01*
X108499999Y-128122311D02*
X108738094Y-127455644D01*
X108738094Y-127455644D02*
X108976189Y-128122311D01*
X109785713Y-127455644D02*
X109785713Y-127979454D01*
X109785713Y-127979454D02*
X109738094Y-128074692D01*
X109738094Y-128074692D02*
X109642856Y-128122311D01*
X109642856Y-128122311D02*
X109452380Y-128122311D01*
X109452380Y-128122311D02*
X109357142Y-128074692D01*
X109785713Y-127503264D02*
X109690475Y-127455644D01*
X109690475Y-127455644D02*
X109452380Y-127455644D01*
X109452380Y-127455644D02*
X109357142Y-127503264D01*
X109357142Y-127503264D02*
X109309523Y-127598502D01*
X109309523Y-127598502D02*
X109309523Y-127693740D01*
X109309523Y-127693740D02*
X109357142Y-127788978D01*
X109357142Y-127788978D02*
X109452380Y-127836597D01*
X109452380Y-127836597D02*
X109690475Y-127836597D01*
X109690475Y-127836597D02*
X109785713Y-127884216D01*
X110261904Y-128122311D02*
X110261904Y-127455644D01*
X110261904Y-128027073D02*
X110309523Y-128074692D01*
X110309523Y-128074692D02*
X110404761Y-128122311D01*
X110404761Y-128122311D02*
X110547618Y-128122311D01*
X110547618Y-128122311D02*
X110642856Y-128074692D01*
X110642856Y-128074692D02*
X110690475Y-127979454D01*
X110690475Y-127979454D02*
X110690475Y-127455644D01*
X112452380Y-128408025D02*
X112357142Y-128455644D01*
X112357142Y-128455644D02*
X112214285Y-128455644D01*
X112214285Y-128455644D02*
X112071428Y-128408025D01*
X112071428Y-128408025D02*
X111976190Y-128312787D01*
X111976190Y-128312787D02*
X111928571Y-128217549D01*
X111928571Y-128217549D02*
X111880952Y-128027073D01*
X111880952Y-128027073D02*
X111880952Y-127884216D01*
X111880952Y-127884216D02*
X111928571Y-127693740D01*
X111928571Y-127693740D02*
X111976190Y-127598502D01*
X111976190Y-127598502D02*
X112071428Y-127503264D01*
X112071428Y-127503264D02*
X112214285Y-127455644D01*
X112214285Y-127455644D02*
X112309523Y-127455644D01*
X112309523Y-127455644D02*
X112452380Y-127503264D01*
X112452380Y-127503264D02*
X112499999Y-127550883D01*
X112499999Y-127550883D02*
X112499999Y-127884216D01*
X112499999Y-127884216D02*
X112309523Y-127884216D01*
X112928571Y-127455644D02*
X112928571Y-128455644D01*
X113357142Y-127455644D02*
X113357142Y-127979454D01*
X113357142Y-127979454D02*
X113309523Y-128074692D01*
X113309523Y-128074692D02*
X113214285Y-128122311D01*
X113214285Y-128122311D02*
X113071428Y-128122311D01*
X113071428Y-128122311D02*
X112976190Y-128074692D01*
X112976190Y-128074692D02*
X112928571Y-128027073D01*
X113738095Y-128122311D02*
X113976190Y-127455644D01*
X114214285Y-128122311D02*
X113976190Y-127455644D01*
X113976190Y-127455644D02*
X113880952Y-127217549D01*
X113880952Y-127217549D02*
X113833333Y-127169930D01*
X113833333Y-127169930D02*
X113738095Y-127122311D01*
X114547619Y-127503264D02*
X114642857Y-127455644D01*
X114642857Y-127455644D02*
X114833333Y-127455644D01*
X114833333Y-127455644D02*
X114928571Y-127503264D01*
X114928571Y-127503264D02*
X114976190Y-127598502D01*
X114976190Y-127598502D02*
X114976190Y-127646121D01*
X114976190Y-127646121D02*
X114928571Y-127741359D01*
X114928571Y-127741359D02*
X114833333Y-127788978D01*
X114833333Y-127788978D02*
X114690476Y-127788978D01*
X114690476Y-127788978D02*
X114595238Y-127836597D01*
X114595238Y-127836597D02*
X114547619Y-127931835D01*
X114547619Y-127931835D02*
X114547619Y-127979454D01*
X114547619Y-127979454D02*
X114595238Y-128074692D01*
X114595238Y-128074692D02*
X114690476Y-128122311D01*
X114690476Y-128122311D02*
X114833333Y-128122311D01*
X114833333Y-128122311D02*
X114928571Y-128074692D01*
X115785714Y-127503264D02*
X115690476Y-127455644D01*
X115690476Y-127455644D02*
X115500000Y-127455644D01*
X115500000Y-127455644D02*
X115404762Y-127503264D01*
X115404762Y-127503264D02*
X115357143Y-127598502D01*
X115357143Y-127598502D02*
X115357143Y-127979454D01*
X115357143Y-127979454D02*
X115404762Y-128074692D01*
X115404762Y-128074692D02*
X115500000Y-128122311D01*
X115500000Y-128122311D02*
X115690476Y-128122311D01*
X115690476Y-128122311D02*
X115785714Y-128074692D01*
X115785714Y-128074692D02*
X115833333Y-127979454D01*
X115833333Y-127979454D02*
X115833333Y-127884216D01*
X115833333Y-127884216D02*
X115357143Y-127788978D01*
X116404762Y-127455644D02*
X116309524Y-127503264D01*
X116309524Y-127503264D02*
X116261905Y-127598502D01*
X116261905Y-127598502D02*
X116261905Y-128455644D01*
X116738096Y-127503264D02*
X116833334Y-127455644D01*
X116833334Y-127455644D02*
X117023810Y-127455644D01*
X117023810Y-127455644D02*
X117119048Y-127503264D01*
X117119048Y-127503264D02*
X117166667Y-127598502D01*
X117166667Y-127598502D02*
X117166667Y-127646121D01*
X117166667Y-127646121D02*
X117119048Y-127741359D01*
X117119048Y-127741359D02*
X117023810Y-127788978D01*
X117023810Y-127788978D02*
X116880953Y-127788978D01*
X116880953Y-127788978D02*
X116785715Y-127836597D01*
X116785715Y-127836597D02*
X116738096Y-127931835D01*
X116738096Y-127931835D02*
X116738096Y-127979454D01*
X116738096Y-127979454D02*
X116785715Y-128074692D01*
X116785715Y-128074692D02*
X116880953Y-128122311D01*
X116880953Y-128122311D02*
X117023810Y-128122311D01*
X117023810Y-128122311D02*
X117119048Y-128074692D01*
X105976190Y-125845700D02*
X105976190Y-126845700D01*
X105976190Y-126845700D02*
X106547618Y-125845700D01*
X106547618Y-125845700D02*
X106547618Y-126845700D01*
X107166666Y-125845700D02*
X107071428Y-125893320D01*
X107071428Y-125893320D02*
X107023809Y-125940939D01*
X107023809Y-125940939D02*
X106976190Y-126036177D01*
X106976190Y-126036177D02*
X106976190Y-126321891D01*
X106976190Y-126321891D02*
X107023809Y-126417129D01*
X107023809Y-126417129D02*
X107071428Y-126464748D01*
X107071428Y-126464748D02*
X107166666Y-126512367D01*
X107166666Y-126512367D02*
X107309523Y-126512367D01*
X107309523Y-126512367D02*
X107404761Y-126464748D01*
X107404761Y-126464748D02*
X107452380Y-126417129D01*
X107452380Y-126417129D02*
X107499999Y-126321891D01*
X107499999Y-126321891D02*
X107499999Y-126036177D01*
X107499999Y-126036177D02*
X107452380Y-125940939D01*
X107452380Y-125940939D02*
X107404761Y-125893320D01*
X107404761Y-125893320D02*
X107309523Y-125845700D01*
X107309523Y-125845700D02*
X107166666Y-125845700D01*
X108357142Y-125845700D02*
X108357142Y-126369510D01*
X108357142Y-126369510D02*
X108309523Y-126464748D01*
X108309523Y-126464748D02*
X108214285Y-126512367D01*
X108214285Y-126512367D02*
X108023809Y-126512367D01*
X108023809Y-126512367D02*
X107928571Y-126464748D01*
X108357142Y-125893320D02*
X108261904Y-125845700D01*
X108261904Y-125845700D02*
X108023809Y-125845700D01*
X108023809Y-125845700D02*
X107928571Y-125893320D01*
X107928571Y-125893320D02*
X107880952Y-125988558D01*
X107880952Y-125988558D02*
X107880952Y-126083796D01*
X107880952Y-126083796D02*
X107928571Y-126179034D01*
X107928571Y-126179034D02*
X108023809Y-126226653D01*
X108023809Y-126226653D02*
X108261904Y-126226653D01*
X108261904Y-126226653D02*
X108357142Y-126274272D01*
X108833333Y-125845700D02*
X108833333Y-126845700D01*
X109261904Y-125845700D02*
X109261904Y-126369510D01*
X109261904Y-126369510D02*
X109214285Y-126464748D01*
X109214285Y-126464748D02*
X109119047Y-126512367D01*
X109119047Y-126512367D02*
X108976190Y-126512367D01*
X108976190Y-126512367D02*
X108880952Y-126464748D01*
X108880952Y-126464748D02*
X108833333Y-126417129D01*
X110452381Y-125893320D02*
X110595238Y-125845700D01*
X110595238Y-125845700D02*
X110833333Y-125845700D01*
X110833333Y-125845700D02*
X110928571Y-125893320D01*
X110928571Y-125893320D02*
X110976190Y-125940939D01*
X110976190Y-125940939D02*
X111023809Y-126036177D01*
X111023809Y-126036177D02*
X111023809Y-126131415D01*
X111023809Y-126131415D02*
X110976190Y-126226653D01*
X110976190Y-126226653D02*
X110928571Y-126274272D01*
X110928571Y-126274272D02*
X110833333Y-126321891D01*
X110833333Y-126321891D02*
X110642857Y-126369510D01*
X110642857Y-126369510D02*
X110547619Y-126417129D01*
X110547619Y-126417129D02*
X110500000Y-126464748D01*
X110500000Y-126464748D02*
X110452381Y-126559986D01*
X110452381Y-126559986D02*
X110452381Y-126655224D01*
X110452381Y-126655224D02*
X110500000Y-126750462D01*
X110500000Y-126750462D02*
X110547619Y-126798081D01*
X110547619Y-126798081D02*
X110642857Y-126845700D01*
X110642857Y-126845700D02*
X110880952Y-126845700D01*
X110880952Y-126845700D02*
X111023809Y-126798081D01*
X111880952Y-125893320D02*
X111785714Y-125845700D01*
X111785714Y-125845700D02*
X111595238Y-125845700D01*
X111595238Y-125845700D02*
X111500000Y-125893320D01*
X111500000Y-125893320D02*
X111452381Y-125940939D01*
X111452381Y-125940939D02*
X111404762Y-126036177D01*
X111404762Y-126036177D02*
X111404762Y-126321891D01*
X111404762Y-126321891D02*
X111452381Y-126417129D01*
X111452381Y-126417129D02*
X111500000Y-126464748D01*
X111500000Y-126464748D02*
X111595238Y-126512367D01*
X111595238Y-126512367D02*
X111785714Y-126512367D01*
X111785714Y-126512367D02*
X111880952Y-126464748D01*
X112309524Y-125845700D02*
X112309524Y-126845700D01*
X112738095Y-125845700D02*
X112738095Y-126369510D01*
X112738095Y-126369510D02*
X112690476Y-126464748D01*
X112690476Y-126464748D02*
X112595238Y-126512367D01*
X112595238Y-126512367D02*
X112452381Y-126512367D01*
X112452381Y-126512367D02*
X112357143Y-126464748D01*
X112357143Y-126464748D02*
X112309524Y-126417129D01*
X113214286Y-125845700D02*
X113214286Y-126512367D01*
X113214286Y-126417129D02*
X113261905Y-126464748D01*
X113261905Y-126464748D02*
X113357143Y-126512367D01*
X113357143Y-126512367D02*
X113500000Y-126512367D01*
X113500000Y-126512367D02*
X113595238Y-126464748D01*
X113595238Y-126464748D02*
X113642857Y-126369510D01*
X113642857Y-126369510D02*
X113642857Y-125845700D01*
X113642857Y-126369510D02*
X113690476Y-126464748D01*
X113690476Y-126464748D02*
X113785714Y-126512367D01*
X113785714Y-126512367D02*
X113928571Y-126512367D01*
X113928571Y-126512367D02*
X114023810Y-126464748D01*
X114023810Y-126464748D02*
X114071429Y-126369510D01*
X114071429Y-126369510D02*
X114071429Y-125845700D01*
X114547619Y-125845700D02*
X114547619Y-126512367D01*
X114547619Y-126845700D02*
X114500000Y-126798081D01*
X114500000Y-126798081D02*
X114547619Y-126750462D01*
X114547619Y-126750462D02*
X114595238Y-126798081D01*
X114595238Y-126798081D02*
X114547619Y-126845700D01*
X114547619Y-126845700D02*
X114547619Y-126750462D01*
X115452380Y-125845700D02*
X115452380Y-126845700D01*
X115452380Y-125893320D02*
X115357142Y-125845700D01*
X115357142Y-125845700D02*
X115166666Y-125845700D01*
X115166666Y-125845700D02*
X115071428Y-125893320D01*
X115071428Y-125893320D02*
X115023809Y-125940939D01*
X115023809Y-125940939D02*
X114976190Y-126036177D01*
X114976190Y-126036177D02*
X114976190Y-126321891D01*
X114976190Y-126321891D02*
X115023809Y-126417129D01*
X115023809Y-126417129D02*
X115071428Y-126464748D01*
X115071428Y-126464748D02*
X115166666Y-126512367D01*
X115166666Y-126512367D02*
X115357142Y-126512367D01*
X115357142Y-126512367D02*
X115452380Y-126464748D01*
X115785714Y-126512367D02*
X116166666Y-126512367D01*
X115928571Y-126845700D02*
X115928571Y-125988558D01*
X115928571Y-125988558D02*
X115976190Y-125893320D01*
X115976190Y-125893320D02*
X116071428Y-125845700D01*
X116071428Y-125845700D02*
X116166666Y-125845700D01*
X104309523Y-124283376D02*
X104452380Y-124235756D01*
X104452380Y-124235756D02*
X104690475Y-124235756D01*
X104690475Y-124235756D02*
X104785713Y-124283376D01*
X104785713Y-124283376D02*
X104833332Y-124330995D01*
X104833332Y-124330995D02*
X104880951Y-124426233D01*
X104880951Y-124426233D02*
X104880951Y-124521471D01*
X104880951Y-124521471D02*
X104833332Y-124616709D01*
X104833332Y-124616709D02*
X104785713Y-124664328D01*
X104785713Y-124664328D02*
X104690475Y-124711947D01*
X104690475Y-124711947D02*
X104499999Y-124759566D01*
X104499999Y-124759566D02*
X104404761Y-124807185D01*
X104404761Y-124807185D02*
X104357142Y-124854804D01*
X104357142Y-124854804D02*
X104309523Y-124950042D01*
X104309523Y-124950042D02*
X104309523Y-125045280D01*
X104309523Y-125045280D02*
X104357142Y-125140518D01*
X104357142Y-125140518D02*
X104404761Y-125188137D01*
X104404761Y-125188137D02*
X104499999Y-125235756D01*
X104499999Y-125235756D02*
X104738094Y-125235756D01*
X104738094Y-125235756D02*
X104880951Y-125188137D01*
X105690475Y-124283376D02*
X105595237Y-124235756D01*
X105595237Y-124235756D02*
X105404761Y-124235756D01*
X105404761Y-124235756D02*
X105309523Y-124283376D01*
X105309523Y-124283376D02*
X105261904Y-124378614D01*
X105261904Y-124378614D02*
X105261904Y-124759566D01*
X105261904Y-124759566D02*
X105309523Y-124854804D01*
X105309523Y-124854804D02*
X105404761Y-124902423D01*
X105404761Y-124902423D02*
X105595237Y-124902423D01*
X105595237Y-124902423D02*
X105690475Y-124854804D01*
X105690475Y-124854804D02*
X105738094Y-124759566D01*
X105738094Y-124759566D02*
X105738094Y-124664328D01*
X105738094Y-124664328D02*
X105261904Y-124569090D01*
X106166666Y-124235756D02*
X106166666Y-125235756D01*
X106166666Y-124854804D02*
X106261904Y-124902423D01*
X106261904Y-124902423D02*
X106452380Y-124902423D01*
X106452380Y-124902423D02*
X106547618Y-124854804D01*
X106547618Y-124854804D02*
X106595237Y-124807185D01*
X106595237Y-124807185D02*
X106642856Y-124711947D01*
X106642856Y-124711947D02*
X106642856Y-124426233D01*
X106642856Y-124426233D02*
X106595237Y-124330995D01*
X106595237Y-124330995D02*
X106547618Y-124283376D01*
X106547618Y-124283376D02*
X106452380Y-124235756D01*
X106452380Y-124235756D02*
X106261904Y-124235756D01*
X106261904Y-124235756D02*
X106166666Y-124283376D01*
X107499999Y-124235756D02*
X107499999Y-124759566D01*
X107499999Y-124759566D02*
X107452380Y-124854804D01*
X107452380Y-124854804D02*
X107357142Y-124902423D01*
X107357142Y-124902423D02*
X107166666Y-124902423D01*
X107166666Y-124902423D02*
X107071428Y-124854804D01*
X107499999Y-124283376D02*
X107404761Y-124235756D01*
X107404761Y-124235756D02*
X107166666Y-124235756D01*
X107166666Y-124235756D02*
X107071428Y-124283376D01*
X107071428Y-124283376D02*
X107023809Y-124378614D01*
X107023809Y-124378614D02*
X107023809Y-124473852D01*
X107023809Y-124473852D02*
X107071428Y-124569090D01*
X107071428Y-124569090D02*
X107166666Y-124616709D01*
X107166666Y-124616709D02*
X107404761Y-124616709D01*
X107404761Y-124616709D02*
X107499999Y-124664328D01*
X107928571Y-124283376D02*
X108023809Y-124235756D01*
X108023809Y-124235756D02*
X108214285Y-124235756D01*
X108214285Y-124235756D02*
X108309523Y-124283376D01*
X108309523Y-124283376D02*
X108357142Y-124378614D01*
X108357142Y-124378614D02*
X108357142Y-124426233D01*
X108357142Y-124426233D02*
X108309523Y-124521471D01*
X108309523Y-124521471D02*
X108214285Y-124569090D01*
X108214285Y-124569090D02*
X108071428Y-124569090D01*
X108071428Y-124569090D02*
X107976190Y-124616709D01*
X107976190Y-124616709D02*
X107928571Y-124711947D01*
X107928571Y-124711947D02*
X107928571Y-124759566D01*
X107928571Y-124759566D02*
X107976190Y-124854804D01*
X107976190Y-124854804D02*
X108071428Y-124902423D01*
X108071428Y-124902423D02*
X108214285Y-124902423D01*
X108214285Y-124902423D02*
X108309523Y-124854804D01*
X108642857Y-124902423D02*
X109023809Y-124902423D01*
X108785714Y-125235756D02*
X108785714Y-124378614D01*
X108785714Y-124378614D02*
X108833333Y-124283376D01*
X108833333Y-124283376D02*
X108928571Y-124235756D01*
X108928571Y-124235756D02*
X109023809Y-124235756D01*
X109357143Y-124235756D02*
X109357143Y-124902423D01*
X109357143Y-125235756D02*
X109309524Y-125188137D01*
X109309524Y-125188137D02*
X109357143Y-125140518D01*
X109357143Y-125140518D02*
X109404762Y-125188137D01*
X109404762Y-125188137D02*
X109357143Y-125235756D01*
X109357143Y-125235756D02*
X109357143Y-125140518D01*
X110261904Y-124235756D02*
X110261904Y-124759566D01*
X110261904Y-124759566D02*
X110214285Y-124854804D01*
X110214285Y-124854804D02*
X110119047Y-124902423D01*
X110119047Y-124902423D02*
X109928571Y-124902423D01*
X109928571Y-124902423D02*
X109833333Y-124854804D01*
X110261904Y-124283376D02*
X110166666Y-124235756D01*
X110166666Y-124235756D02*
X109928571Y-124235756D01*
X109928571Y-124235756D02*
X109833333Y-124283376D01*
X109833333Y-124283376D02*
X109785714Y-124378614D01*
X109785714Y-124378614D02*
X109785714Y-124473852D01*
X109785714Y-124473852D02*
X109833333Y-124569090D01*
X109833333Y-124569090D02*
X109928571Y-124616709D01*
X109928571Y-124616709D02*
X110166666Y-124616709D01*
X110166666Y-124616709D02*
X110261904Y-124664328D01*
X110738095Y-124902423D02*
X110738095Y-124235756D01*
X110738095Y-124807185D02*
X110785714Y-124854804D01*
X110785714Y-124854804D02*
X110880952Y-124902423D01*
X110880952Y-124902423D02*
X111023809Y-124902423D01*
X111023809Y-124902423D02*
X111119047Y-124854804D01*
X111119047Y-124854804D02*
X111166666Y-124759566D01*
X111166666Y-124759566D02*
X111166666Y-124235756D01*
X112357143Y-124283376D02*
X112500000Y-124235756D01*
X112500000Y-124235756D02*
X112738095Y-124235756D01*
X112738095Y-124235756D02*
X112833333Y-124283376D01*
X112833333Y-124283376D02*
X112880952Y-124330995D01*
X112880952Y-124330995D02*
X112928571Y-124426233D01*
X112928571Y-124426233D02*
X112928571Y-124521471D01*
X112928571Y-124521471D02*
X112880952Y-124616709D01*
X112880952Y-124616709D02*
X112833333Y-124664328D01*
X112833333Y-124664328D02*
X112738095Y-124711947D01*
X112738095Y-124711947D02*
X112547619Y-124759566D01*
X112547619Y-124759566D02*
X112452381Y-124807185D01*
X112452381Y-124807185D02*
X112404762Y-124854804D01*
X112404762Y-124854804D02*
X112357143Y-124950042D01*
X112357143Y-124950042D02*
X112357143Y-125045280D01*
X112357143Y-125045280D02*
X112404762Y-125140518D01*
X112404762Y-125140518D02*
X112452381Y-125188137D01*
X112452381Y-125188137D02*
X112547619Y-125235756D01*
X112547619Y-125235756D02*
X112785714Y-125235756D01*
X112785714Y-125235756D02*
X112928571Y-125188137D01*
X113214286Y-124902423D02*
X113595238Y-124902423D01*
X113357143Y-125235756D02*
X113357143Y-124378614D01*
X113357143Y-124378614D02*
X113404762Y-124283376D01*
X113404762Y-124283376D02*
X113500000Y-124235756D01*
X113500000Y-124235756D02*
X113595238Y-124235756D01*
X114357143Y-124235756D02*
X114357143Y-124759566D01*
X114357143Y-124759566D02*
X114309524Y-124854804D01*
X114309524Y-124854804D02*
X114214286Y-124902423D01*
X114214286Y-124902423D02*
X114023810Y-124902423D01*
X114023810Y-124902423D02*
X113928572Y-124854804D01*
X114357143Y-124283376D02*
X114261905Y-124235756D01*
X114261905Y-124235756D02*
X114023810Y-124235756D01*
X114023810Y-124235756D02*
X113928572Y-124283376D01*
X113928572Y-124283376D02*
X113880953Y-124378614D01*
X113880953Y-124378614D02*
X113880953Y-124473852D01*
X113880953Y-124473852D02*
X113928572Y-124569090D01*
X113928572Y-124569090D02*
X114023810Y-124616709D01*
X114023810Y-124616709D02*
X114261905Y-124616709D01*
X114261905Y-124616709D02*
X114357143Y-124664328D01*
X115261905Y-124902423D02*
X115261905Y-124235756D01*
X114833334Y-124902423D02*
X114833334Y-124378614D01*
X114833334Y-124378614D02*
X114880953Y-124283376D01*
X114880953Y-124283376D02*
X114976191Y-124235756D01*
X114976191Y-124235756D02*
X115119048Y-124235756D01*
X115119048Y-124235756D02*
X115214286Y-124283376D01*
X115214286Y-124283376D02*
X115261905Y-124330995D01*
X115738096Y-124235756D02*
X115738096Y-125235756D01*
X115738096Y-124854804D02*
X115833334Y-124902423D01*
X115833334Y-124902423D02*
X116023810Y-124902423D01*
X116023810Y-124902423D02*
X116119048Y-124854804D01*
X116119048Y-124854804D02*
X116166667Y-124807185D01*
X116166667Y-124807185D02*
X116214286Y-124711947D01*
X116214286Y-124711947D02*
X116214286Y-124426233D01*
X116214286Y-124426233D02*
X116166667Y-124330995D01*
X116166667Y-124330995D02*
X116119048Y-124283376D01*
X116119048Y-124283376D02*
X116023810Y-124235756D01*
X116023810Y-124235756D02*
X115833334Y-124235756D01*
X115833334Y-124235756D02*
X115738096Y-124283376D01*
X117023810Y-124283376D02*
X116928572Y-124235756D01*
X116928572Y-124235756D02*
X116738096Y-124235756D01*
X116738096Y-124235756D02*
X116642858Y-124283376D01*
X116642858Y-124283376D02*
X116595239Y-124378614D01*
X116595239Y-124378614D02*
X116595239Y-124759566D01*
X116595239Y-124759566D02*
X116642858Y-124854804D01*
X116642858Y-124854804D02*
X116738096Y-124902423D01*
X116738096Y-124902423D02*
X116928572Y-124902423D01*
X116928572Y-124902423D02*
X117023810Y-124854804D01*
X117023810Y-124854804D02*
X117071429Y-124759566D01*
X117071429Y-124759566D02*
X117071429Y-124664328D01*
X117071429Y-124664328D02*
X116595239Y-124569090D01*
X117500001Y-124235756D02*
X117500001Y-124902423D01*
X117500001Y-124711947D02*
X117547620Y-124807185D01*
X117547620Y-124807185D02*
X117595239Y-124854804D01*
X117595239Y-124854804D02*
X117690477Y-124902423D01*
X117690477Y-124902423D02*
X117785715Y-124902423D01*
X106261904Y-123625812D02*
X106261904Y-122911527D01*
X106261904Y-122911527D02*
X106214285Y-122768670D01*
X106214285Y-122768670D02*
X106119047Y-122673432D01*
X106119047Y-122673432D02*
X105976190Y-122625812D01*
X105976190Y-122625812D02*
X105880952Y-122625812D01*
X107166666Y-122625812D02*
X107166666Y-123149622D01*
X107166666Y-123149622D02*
X107119047Y-123244860D01*
X107119047Y-123244860D02*
X107023809Y-123292479D01*
X107023809Y-123292479D02*
X106833333Y-123292479D01*
X106833333Y-123292479D02*
X106738095Y-123244860D01*
X107166666Y-122673432D02*
X107071428Y-122625812D01*
X107071428Y-122625812D02*
X106833333Y-122625812D01*
X106833333Y-122625812D02*
X106738095Y-122673432D01*
X106738095Y-122673432D02*
X106690476Y-122768670D01*
X106690476Y-122768670D02*
X106690476Y-122863908D01*
X106690476Y-122863908D02*
X106738095Y-122959146D01*
X106738095Y-122959146D02*
X106833333Y-123006765D01*
X106833333Y-123006765D02*
X107071428Y-123006765D01*
X107071428Y-123006765D02*
X107166666Y-123054384D01*
X108071428Y-122673432D02*
X107976190Y-122625812D01*
X107976190Y-122625812D02*
X107785714Y-122625812D01*
X107785714Y-122625812D02*
X107690476Y-122673432D01*
X107690476Y-122673432D02*
X107642857Y-122721051D01*
X107642857Y-122721051D02*
X107595238Y-122816289D01*
X107595238Y-122816289D02*
X107595238Y-123102003D01*
X107595238Y-123102003D02*
X107642857Y-123197241D01*
X107642857Y-123197241D02*
X107690476Y-123244860D01*
X107690476Y-123244860D02*
X107785714Y-123292479D01*
X107785714Y-123292479D02*
X107976190Y-123292479D01*
X107976190Y-123292479D02*
X108071428Y-123244860D01*
X108500000Y-122625812D02*
X108500000Y-123625812D01*
X108595238Y-123006765D02*
X108880952Y-122625812D01*
X108880952Y-123292479D02*
X108500000Y-122911527D01*
X109261905Y-122673432D02*
X109357143Y-122625812D01*
X109357143Y-122625812D02*
X109547619Y-122625812D01*
X109547619Y-122625812D02*
X109642857Y-122673432D01*
X109642857Y-122673432D02*
X109690476Y-122768670D01*
X109690476Y-122768670D02*
X109690476Y-122816289D01*
X109690476Y-122816289D02*
X109642857Y-122911527D01*
X109642857Y-122911527D02*
X109547619Y-122959146D01*
X109547619Y-122959146D02*
X109404762Y-122959146D01*
X109404762Y-122959146D02*
X109309524Y-123006765D01*
X109309524Y-123006765D02*
X109261905Y-123102003D01*
X109261905Y-123102003D02*
X109261905Y-123149622D01*
X109261905Y-123149622D02*
X109309524Y-123244860D01*
X109309524Y-123244860D02*
X109404762Y-123292479D01*
X109404762Y-123292479D02*
X109547619Y-123292479D01*
X109547619Y-123292479D02*
X109642857Y-123244860D01*
X110261905Y-122625812D02*
X110166667Y-122673432D01*
X110166667Y-122673432D02*
X110119048Y-122721051D01*
X110119048Y-122721051D02*
X110071429Y-122816289D01*
X110071429Y-122816289D02*
X110071429Y-123102003D01*
X110071429Y-123102003D02*
X110119048Y-123197241D01*
X110119048Y-123197241D02*
X110166667Y-123244860D01*
X110166667Y-123244860D02*
X110261905Y-123292479D01*
X110261905Y-123292479D02*
X110404762Y-123292479D01*
X110404762Y-123292479D02*
X110500000Y-123244860D01*
X110500000Y-123244860D02*
X110547619Y-123197241D01*
X110547619Y-123197241D02*
X110595238Y-123102003D01*
X110595238Y-123102003D02*
X110595238Y-122816289D01*
X110595238Y-122816289D02*
X110547619Y-122721051D01*
X110547619Y-122721051D02*
X110500000Y-122673432D01*
X110500000Y-122673432D02*
X110404762Y-122625812D01*
X110404762Y-122625812D02*
X110261905Y-122625812D01*
X111023810Y-123292479D02*
X111023810Y-122625812D01*
X111023810Y-123197241D02*
X111071429Y-123244860D01*
X111071429Y-123244860D02*
X111166667Y-123292479D01*
X111166667Y-123292479D02*
X111309524Y-123292479D01*
X111309524Y-123292479D02*
X111404762Y-123244860D01*
X111404762Y-123244860D02*
X111452381Y-123149622D01*
X111452381Y-123149622D02*
X111452381Y-122625812D01*
X112595239Y-123625812D02*
X112833334Y-122625812D01*
X112833334Y-122625812D02*
X113023810Y-123340098D01*
X113023810Y-123340098D02*
X113214286Y-122625812D01*
X113214286Y-122625812D02*
X113452382Y-123625812D01*
X113833334Y-122625812D02*
X113833334Y-123292479D01*
X113833334Y-123625812D02*
X113785715Y-123578193D01*
X113785715Y-123578193D02*
X113833334Y-123530574D01*
X113833334Y-123530574D02*
X113880953Y-123578193D01*
X113880953Y-123578193D02*
X113833334Y-123625812D01*
X113833334Y-123625812D02*
X113833334Y-123530574D01*
X114452381Y-122625812D02*
X114357143Y-122673432D01*
X114357143Y-122673432D02*
X114309524Y-122768670D01*
X114309524Y-122768670D02*
X114309524Y-123625812D01*
X115214286Y-122673432D02*
X115119048Y-122625812D01*
X115119048Y-122625812D02*
X114928572Y-122625812D01*
X114928572Y-122625812D02*
X114833334Y-122673432D01*
X114833334Y-122673432D02*
X114785715Y-122768670D01*
X114785715Y-122768670D02*
X114785715Y-123149622D01*
X114785715Y-123149622D02*
X114833334Y-123244860D01*
X114833334Y-123244860D02*
X114928572Y-123292479D01*
X114928572Y-123292479D02*
X115119048Y-123292479D01*
X115119048Y-123292479D02*
X115214286Y-123244860D01*
X115214286Y-123244860D02*
X115261905Y-123149622D01*
X115261905Y-123149622D02*
X115261905Y-123054384D01*
X115261905Y-123054384D02*
X114785715Y-122959146D01*
X115642858Y-122673432D02*
X115738096Y-122625812D01*
X115738096Y-122625812D02*
X115928572Y-122625812D01*
X115928572Y-122625812D02*
X116023810Y-122673432D01*
X116023810Y-122673432D02*
X116071429Y-122768670D01*
X116071429Y-122768670D02*
X116071429Y-122816289D01*
X116071429Y-122816289D02*
X116023810Y-122911527D01*
X116023810Y-122911527D02*
X115928572Y-122959146D01*
X115928572Y-122959146D02*
X115785715Y-122959146D01*
X115785715Y-122959146D02*
X115690477Y-123006765D01*
X115690477Y-123006765D02*
X115642858Y-123102003D01*
X115642858Y-123102003D02*
X115642858Y-123149622D01*
X115642858Y-123149622D02*
X115690477Y-123244860D01*
X115690477Y-123244860D02*
X115785715Y-123292479D01*
X115785715Y-123292479D02*
X115928572Y-123292479D01*
X115928572Y-123292479D02*
X116023810Y-123244860D01*
D13*
%TO.C,J2*%
X122363400Y-124426700D02*
G75*
G02*
X121601400Y-124426700I-381000J0D01*
G01*
X121601400Y-124426700D02*
G75*
G02*
X122363400Y-124426700I381000J0D01*
G01*
%TO.C,SW2*%
X173548700Y-124588000D02*
G75*
G02*
X172786700Y-124588000I-381000J0D01*
G01*
X172786700Y-124588000D02*
G75*
G02*
X173548700Y-124588000I381000J0D01*
G01*
%TO.C,J10*%
X161492900Y-76500000D02*
G75*
G02*
X160730900Y-76500000I-381000J0D01*
G01*
X160730900Y-76500000D02*
G75*
G02*
X161492900Y-76500000I381000J0D01*
G01*
D14*
%TO.C,REF\u002A\u002A*%
X113016955Y-115656350D02*
X113050969Y-115682279D01*
X113103405Y-115727930D01*
X113169699Y-115788814D01*
X113245287Y-115860439D01*
X113325604Y-115938317D01*
X113406087Y-116017955D01*
X113482171Y-116094865D01*
X113549293Y-116164555D01*
X113602888Y-116222536D01*
X113638392Y-116264316D01*
X113651241Y-116285407D01*
X113650500Y-116289419D01*
X113635207Y-116322080D01*
X113602538Y-116378588D01*
X113555650Y-116453837D01*
X113497699Y-116542725D01*
X113431843Y-116640146D01*
X113413373Y-116667018D01*
X113348518Y-116761577D01*
X113291391Y-116845173D01*
X113245322Y-116912916D01*
X113213641Y-116959914D01*
X113199676Y-116981274D01*
X113199332Y-116982189D01*
X113203454Y-117008322D01*
X113219193Y-117061260D01*
X113243996Y-117134353D01*
X113275311Y-117220948D01*
X113310583Y-117314392D01*
X113347260Y-117408035D01*
X113382788Y-117495223D01*
X113414614Y-117569305D01*
X113440184Y-117623629D01*
X113456947Y-117651543D01*
X113458626Y-117653276D01*
X113470628Y-117662044D01*
X113490897Y-117670885D01*
X113523471Y-117680708D01*
X113572384Y-117692417D01*
X113641673Y-117706920D01*
X113735375Y-117725124D01*
X113857524Y-117747934D01*
X114012158Y-117776259D01*
X114044230Y-117782220D01*
X114136107Y-117800648D01*
X114213393Y-117818108D01*
X114268764Y-117832867D01*
X114294895Y-117843190D01*
X114299267Y-117851803D01*
X114306555Y-117893174D01*
X114312331Y-117961759D01*
X114316590Y-118051132D01*
X114319327Y-118154865D01*
X114320538Y-118266535D01*
X114320218Y-118379713D01*
X114318364Y-118487974D01*
X114314970Y-118584892D01*
X114310033Y-118664041D01*
X114303548Y-118718994D01*
X114295511Y-118743326D01*
X114287304Y-118746921D01*
X114246481Y-118758252D01*
X114177476Y-118774278D01*
X114085797Y-118793805D01*
X113976950Y-118815638D01*
X113856442Y-118838582D01*
X113790643Y-118850841D01*
X113677865Y-118872099D01*
X113580793Y-118890713D01*
X113504618Y-118905672D01*
X113454531Y-118915964D01*
X113435724Y-118920578D01*
X113435017Y-118921529D01*
X113423039Y-118945690D01*
X113400206Y-118996306D01*
X113369370Y-119066662D01*
X113333387Y-119150042D01*
X113295109Y-119239730D01*
X113257391Y-119329011D01*
X113223087Y-119411168D01*
X113195051Y-119479487D01*
X113176136Y-119527252D01*
X113169197Y-119547746D01*
X113172258Y-119554957D01*
X113192628Y-119589272D01*
X113229578Y-119647030D01*
X113280140Y-119723701D01*
X113341343Y-119814752D01*
X113410219Y-119915650D01*
X113448006Y-119970907D01*
X113513218Y-120067785D01*
X113569129Y-120152807D01*
X113612759Y-120221338D01*
X113641123Y-120268740D01*
X113651241Y-120290377D01*
X113644210Y-120302113D01*
X113614803Y-120337182D01*
X113566559Y-120390255D01*
X113503907Y-120456836D01*
X113431275Y-120532426D01*
X113353092Y-120612528D01*
X113273786Y-120692646D01*
X113197787Y-120768282D01*
X113129522Y-120834938D01*
X113073420Y-120888118D01*
X113033910Y-120923324D01*
X113015421Y-120936058D01*
X113005157Y-120931107D01*
X112967470Y-120908143D01*
X112906652Y-120869062D01*
X112827087Y-120816728D01*
X112733157Y-120754004D01*
X112629246Y-120683754D01*
X112258206Y-120431449D01*
X111948920Y-120558947D01*
X111639635Y-120686445D01*
X111555814Y-121131069D01*
X111471994Y-121575693D01*
X110546546Y-121575693D01*
X110462725Y-121131069D01*
X110378905Y-120686445D01*
X109760333Y-120431449D01*
X109389293Y-120683754D01*
X109315856Y-120733494D01*
X109218501Y-120798782D01*
X109134213Y-120854546D01*
X109067369Y-120897922D01*
X109022346Y-120926047D01*
X109003522Y-120936058D01*
X108991961Y-120928939D01*
X108957404Y-120899106D01*
X108905106Y-120850148D01*
X108839500Y-120786560D01*
X108765017Y-120712837D01*
X108686087Y-120633475D01*
X108607144Y-120552969D01*
X108532616Y-120475815D01*
X108466937Y-120406507D01*
X108414537Y-120349543D01*
X108379847Y-120309416D01*
X108367299Y-120290623D01*
X108370218Y-120282549D01*
X108390429Y-120246531D01*
X108427337Y-120187256D01*
X108477950Y-120109370D01*
X108539275Y-120017519D01*
X108608321Y-119916350D01*
X108646213Y-119861174D01*
X108711394Y-119765116D01*
X108767277Y-119681283D01*
X108810883Y-119614223D01*
X108839231Y-119568481D01*
X108849343Y-119548604D01*
X108849177Y-119547503D01*
X108840257Y-119522306D01*
X108819794Y-119470853D01*
X108790640Y-119399865D01*
X108755647Y-119316065D01*
X108717668Y-119226172D01*
X108679555Y-119136909D01*
X108644161Y-119054997D01*
X108614338Y-118987157D01*
X108592939Y-118940110D01*
X108582816Y-118920578D01*
X108576826Y-118918845D01*
X108540434Y-118911031D01*
X108475573Y-118898085D01*
X108387435Y-118881021D01*
X108281213Y-118860849D01*
X108162098Y-118838582D01*
X108099317Y-118826777D01*
X107984088Y-118804252D01*
X107883338Y-118783450D01*
X107802574Y-118765565D01*
X107747302Y-118751792D01*
X107723029Y-118743326D01*
X107718669Y-118734934D01*
X107711437Y-118693928D01*
X107705754Y-118625632D01*
X107701618Y-118536471D01*
X107699023Y-118432872D01*
X107697964Y-118321260D01*
X107698439Y-118208062D01*
X107700441Y-118099704D01*
X107703967Y-118002611D01*
X107709013Y-117923210D01*
X107715573Y-117867928D01*
X107723644Y-117843190D01*
X107728542Y-117840400D01*
X107765070Y-117828431D01*
X107828435Y-117812595D01*
X107911314Y-117794626D01*
X108006382Y-117776259D01*
X108038458Y-117770409D01*
X108186607Y-117743202D01*
X108303039Y-117721337D01*
X108391791Y-117703907D01*
X108456897Y-117690004D01*
X108502394Y-117678723D01*
X108532318Y-117669157D01*
X108550706Y-117660399D01*
X108561593Y-117651543D01*
X108562858Y-117650057D01*
X108580662Y-117619069D01*
X108607006Y-117562366D01*
X108639339Y-117486601D01*
X108675107Y-117398426D01*
X108711756Y-117304493D01*
X108746734Y-117211453D01*
X108777487Y-117125959D01*
X108801462Y-117054664D01*
X108816105Y-117004218D01*
X108818864Y-116981274D01*
X108817019Y-116978297D01*
X108797925Y-116949507D01*
X108762016Y-116896405D01*
X108712622Y-116823883D01*
X108653073Y-116736833D01*
X108586697Y-116640146D01*
X108568480Y-116613544D01*
X108504423Y-116518125D01*
X108449063Y-116432788D01*
X108405561Y-116362595D01*
X108377076Y-116312606D01*
X108366768Y-116287884D01*
X108368989Y-116281384D01*
X108392142Y-116249356D01*
X108437823Y-116197055D01*
X108502759Y-116128001D01*
X108583681Y-116045714D01*
X108677315Y-115953714D01*
X108730835Y-115902219D01*
X108815458Y-115822017D01*
X108889525Y-115753322D01*
X108949059Y-115699748D01*
X108990083Y-115664915D01*
X109008619Y-115652437D01*
X109021354Y-115657062D01*
X109060564Y-115678943D01*
X109117505Y-115714727D01*
X109184750Y-115759883D01*
X109232562Y-115792835D01*
X109328015Y-115858273D01*
X109429875Y-115927772D01*
X109522912Y-115990925D01*
X109705168Y-116114200D01*
X109858159Y-116031480D01*
X109894183Y-116012387D01*
X109959697Y-115979728D01*
X110010360Y-115957181D01*
X110037436Y-115948774D01*
X110046297Y-115959570D01*
X110068301Y-116000677D01*
X110100801Y-116068451D01*
X110141990Y-116158591D01*
X110190058Y-116266795D01*
X110243198Y-116388763D01*
X110299601Y-116520192D01*
X110357458Y-116656782D01*
X110414962Y-116794233D01*
X110470303Y-116928242D01*
X110521674Y-117054509D01*
X110567265Y-117168732D01*
X110605268Y-117266610D01*
X110633876Y-117343843D01*
X110651279Y-117396129D01*
X110655669Y-117419167D01*
X110655372Y-117419840D01*
X110634923Y-117441137D01*
X110592150Y-117474492D01*
X110535883Y-117512989D01*
X110518123Y-117524744D01*
X110382986Y-117636265D01*
X110271144Y-117769094D01*
X110185245Y-117917702D01*
X110127938Y-118076560D01*
X110101869Y-118240140D01*
X110109687Y-118402912D01*
X110141356Y-118547685D01*
X110198218Y-118693876D01*
X110281112Y-118824297D01*
X110394869Y-118948187D01*
X110439567Y-118987765D01*
X110584065Y-119085277D01*
X110740162Y-119150950D01*
X110903333Y-119185370D01*
X111069057Y-119189126D01*
X111232808Y-119162806D01*
X111390064Y-119106997D01*
X111536302Y-119022286D01*
X111666996Y-118909263D01*
X111777626Y-118768513D01*
X111798895Y-118733658D01*
X111871190Y-118574345D01*
X111909585Y-118408448D01*
X111915086Y-118240263D01*
X111888699Y-118074087D01*
X111831430Y-117914216D01*
X111744283Y-117764947D01*
X111628264Y-117630577D01*
X111484378Y-117515401D01*
X111479706Y-117512298D01*
X111424036Y-117473067D01*
X111382311Y-117439714D01*
X111363254Y-117419167D01*
X111365658Y-117403059D01*
X111380609Y-117356156D01*
X111407119Y-117283461D01*
X111443380Y-117189275D01*
X111487584Y-117077902D01*
X111537924Y-116953642D01*
X111592593Y-116820798D01*
X111649782Y-116683673D01*
X111707684Y-116546568D01*
X111764490Y-116413785D01*
X111818394Y-116289626D01*
X111867588Y-116178394D01*
X111910263Y-116084391D01*
X111944613Y-116011918D01*
X111968829Y-115965278D01*
X111981103Y-115948774D01*
X111991311Y-115951009D01*
X112031414Y-115967074D01*
X112090682Y-115995241D01*
X112160381Y-116031480D01*
X112313371Y-116114200D01*
X112495627Y-115990925D01*
X112549473Y-115954421D01*
X112649626Y-115886216D01*
X112749475Y-115817902D01*
X112833789Y-115759883D01*
X112880321Y-115728264D01*
X112940800Y-115688980D01*
X112985643Y-115662088D01*
X113007545Y-115652117D01*
X113016955Y-115656350D01*
G36*
X113016955Y-115656350D02*
G01*
X113050969Y-115682279D01*
X113103405Y-115727930D01*
X113169699Y-115788814D01*
X113245287Y-115860439D01*
X113325604Y-115938317D01*
X113406087Y-116017955D01*
X113482171Y-116094865D01*
X113549293Y-116164555D01*
X113602888Y-116222536D01*
X113638392Y-116264316D01*
X113651241Y-116285407D01*
X113650500Y-116289419D01*
X113635207Y-116322080D01*
X113602538Y-116378588D01*
X113555650Y-116453837D01*
X113497699Y-116542725D01*
X113431843Y-116640146D01*
X113413373Y-116667018D01*
X113348518Y-116761577D01*
X113291391Y-116845173D01*
X113245322Y-116912916D01*
X113213641Y-116959914D01*
X113199676Y-116981274D01*
X113199332Y-116982189D01*
X113203454Y-117008322D01*
X113219193Y-117061260D01*
X113243996Y-117134353D01*
X113275311Y-117220948D01*
X113310583Y-117314392D01*
X113347260Y-117408035D01*
X113382788Y-117495223D01*
X113414614Y-117569305D01*
X113440184Y-117623629D01*
X113456947Y-117651543D01*
X113458626Y-117653276D01*
X113470628Y-117662044D01*
X113490897Y-117670885D01*
X113523471Y-117680708D01*
X113572384Y-117692417D01*
X113641673Y-117706920D01*
X113735375Y-117725124D01*
X113857524Y-117747934D01*
X114012158Y-117776259D01*
X114044230Y-117782220D01*
X114136107Y-117800648D01*
X114213393Y-117818108D01*
X114268764Y-117832867D01*
X114294895Y-117843190D01*
X114299267Y-117851803D01*
X114306555Y-117893174D01*
X114312331Y-117961759D01*
X114316590Y-118051132D01*
X114319327Y-118154865D01*
X114320538Y-118266535D01*
X114320218Y-118379713D01*
X114318364Y-118487974D01*
X114314970Y-118584892D01*
X114310033Y-118664041D01*
X114303548Y-118718994D01*
X114295511Y-118743326D01*
X114287304Y-118746921D01*
X114246481Y-118758252D01*
X114177476Y-118774278D01*
X114085797Y-118793805D01*
X113976950Y-118815638D01*
X113856442Y-118838582D01*
X113790643Y-118850841D01*
X113677865Y-118872099D01*
X113580793Y-118890713D01*
X113504618Y-118905672D01*
X113454531Y-118915964D01*
X113435724Y-118920578D01*
X113435017Y-118921529D01*
X113423039Y-118945690D01*
X113400206Y-118996306D01*
X113369370Y-119066662D01*
X113333387Y-119150042D01*
X113295109Y-119239730D01*
X113257391Y-119329011D01*
X113223087Y-119411168D01*
X113195051Y-119479487D01*
X113176136Y-119527252D01*
X113169197Y-119547746D01*
X113172258Y-119554957D01*
X113192628Y-119589272D01*
X113229578Y-119647030D01*
X113280140Y-119723701D01*
X113341343Y-119814752D01*
X113410219Y-119915650D01*
X113448006Y-119970907D01*
X113513218Y-120067785D01*
X113569129Y-120152807D01*
X113612759Y-120221338D01*
X113641123Y-120268740D01*
X113651241Y-120290377D01*
X113644210Y-120302113D01*
X113614803Y-120337182D01*
X113566559Y-120390255D01*
X113503907Y-120456836D01*
X113431275Y-120532426D01*
X113353092Y-120612528D01*
X113273786Y-120692646D01*
X113197787Y-120768282D01*
X113129522Y-120834938D01*
X113073420Y-120888118D01*
X113033910Y-120923324D01*
X113015421Y-120936058D01*
X113005157Y-120931107D01*
X112967470Y-120908143D01*
X112906652Y-120869062D01*
X112827087Y-120816728D01*
X112733157Y-120754004D01*
X112629246Y-120683754D01*
X112258206Y-120431449D01*
X111948920Y-120558947D01*
X111639635Y-120686445D01*
X111555814Y-121131069D01*
X111471994Y-121575693D01*
X110546546Y-121575693D01*
X110462725Y-121131069D01*
X110378905Y-120686445D01*
X109760333Y-120431449D01*
X109389293Y-120683754D01*
X109315856Y-120733494D01*
X109218501Y-120798782D01*
X109134213Y-120854546D01*
X109067369Y-120897922D01*
X109022346Y-120926047D01*
X109003522Y-120936058D01*
X108991961Y-120928939D01*
X108957404Y-120899106D01*
X108905106Y-120850148D01*
X108839500Y-120786560D01*
X108765017Y-120712837D01*
X108686087Y-120633475D01*
X108607144Y-120552969D01*
X108532616Y-120475815D01*
X108466937Y-120406507D01*
X108414537Y-120349543D01*
X108379847Y-120309416D01*
X108367299Y-120290623D01*
X108370218Y-120282549D01*
X108390429Y-120246531D01*
X108427337Y-120187256D01*
X108477950Y-120109370D01*
X108539275Y-120017519D01*
X108608321Y-119916350D01*
X108646213Y-119861174D01*
X108711394Y-119765116D01*
X108767277Y-119681283D01*
X108810883Y-119614223D01*
X108839231Y-119568481D01*
X108849343Y-119548604D01*
X108849177Y-119547503D01*
X108840257Y-119522306D01*
X108819794Y-119470853D01*
X108790640Y-119399865D01*
X108755647Y-119316065D01*
X108717668Y-119226172D01*
X108679555Y-119136909D01*
X108644161Y-119054997D01*
X108614338Y-118987157D01*
X108592939Y-118940110D01*
X108582816Y-118920578D01*
X108576826Y-118918845D01*
X108540434Y-118911031D01*
X108475573Y-118898085D01*
X108387435Y-118881021D01*
X108281213Y-118860849D01*
X108162098Y-118838582D01*
X108099317Y-118826777D01*
X107984088Y-118804252D01*
X107883338Y-118783450D01*
X107802574Y-118765565D01*
X107747302Y-118751792D01*
X107723029Y-118743326D01*
X107718669Y-118734934D01*
X107711437Y-118693928D01*
X107705754Y-118625632D01*
X107701618Y-118536471D01*
X107699023Y-118432872D01*
X107697964Y-118321260D01*
X107698439Y-118208062D01*
X107700441Y-118099704D01*
X107703967Y-118002611D01*
X107709013Y-117923210D01*
X107715573Y-117867928D01*
X107723644Y-117843190D01*
X107728542Y-117840400D01*
X107765070Y-117828431D01*
X107828435Y-117812595D01*
X107911314Y-117794626D01*
X108006382Y-117776259D01*
X108038458Y-117770409D01*
X108186607Y-117743202D01*
X108303039Y-117721337D01*
X108391791Y-117703907D01*
X108456897Y-117690004D01*
X108502394Y-117678723D01*
X108532318Y-117669157D01*
X108550706Y-117660399D01*
X108561593Y-117651543D01*
X108562858Y-117650057D01*
X108580662Y-117619069D01*
X108607006Y-117562366D01*
X108639339Y-117486601D01*
X108675107Y-117398426D01*
X108711756Y-117304493D01*
X108746734Y-117211453D01*
X108777487Y-117125959D01*
X108801462Y-117054664D01*
X108816105Y-117004218D01*
X108818864Y-116981274D01*
X108817019Y-116978297D01*
X108797925Y-116949507D01*
X108762016Y-116896405D01*
X108712622Y-116823883D01*
X108653073Y-116736833D01*
X108586697Y-116640146D01*
X108568480Y-116613544D01*
X108504423Y-116518125D01*
X108449063Y-116432788D01*
X108405561Y-116362595D01*
X108377076Y-116312606D01*
X108366768Y-116287884D01*
X108368989Y-116281384D01*
X108392142Y-116249356D01*
X108437823Y-116197055D01*
X108502759Y-116128001D01*
X108583681Y-116045714D01*
X108677315Y-115953714D01*
X108730835Y-115902219D01*
X108815458Y-115822017D01*
X108889525Y-115753322D01*
X108949059Y-115699748D01*
X108990083Y-115664915D01*
X109008619Y-115652437D01*
X109021354Y-115657062D01*
X109060564Y-115678943D01*
X109117505Y-115714727D01*
X109184750Y-115759883D01*
X109232562Y-115792835D01*
X109328015Y-115858273D01*
X109429875Y-115927772D01*
X109522912Y-115990925D01*
X109705168Y-116114200D01*
X109858159Y-116031480D01*
X109894183Y-116012387D01*
X109959697Y-115979728D01*
X110010360Y-115957181D01*
X110037436Y-115948774D01*
X110046297Y-115959570D01*
X110068301Y-116000677D01*
X110100801Y-116068451D01*
X110141990Y-116158591D01*
X110190058Y-116266795D01*
X110243198Y-116388763D01*
X110299601Y-116520192D01*
X110357458Y-116656782D01*
X110414962Y-116794233D01*
X110470303Y-116928242D01*
X110521674Y-117054509D01*
X110567265Y-117168732D01*
X110605268Y-117266610D01*
X110633876Y-117343843D01*
X110651279Y-117396129D01*
X110655669Y-117419167D01*
X110655372Y-117419840D01*
X110634923Y-117441137D01*
X110592150Y-117474492D01*
X110535883Y-117512989D01*
X110518123Y-117524744D01*
X110382986Y-117636265D01*
X110271144Y-117769094D01*
X110185245Y-117917702D01*
X110127938Y-118076560D01*
X110101869Y-118240140D01*
X110109687Y-118402912D01*
X110141356Y-118547685D01*
X110198218Y-118693876D01*
X110281112Y-118824297D01*
X110394869Y-118948187D01*
X110439567Y-118987765D01*
X110584065Y-119085277D01*
X110740162Y-119150950D01*
X110903333Y-119185370D01*
X111069057Y-119189126D01*
X111232808Y-119162806D01*
X111390064Y-119106997D01*
X111536302Y-119022286D01*
X111666996Y-118909263D01*
X111777626Y-118768513D01*
X111798895Y-118733658D01*
X111871190Y-118574345D01*
X111909585Y-118408448D01*
X111915086Y-118240263D01*
X111888699Y-118074087D01*
X111831430Y-117914216D01*
X111744283Y-117764947D01*
X111628264Y-117630577D01*
X111484378Y-117515401D01*
X111479706Y-117512298D01*
X111424036Y-117473067D01*
X111382311Y-117439714D01*
X111363254Y-117419167D01*
X111365658Y-117403059D01*
X111380609Y-117356156D01*
X111407119Y-117283461D01*
X111443380Y-117189275D01*
X111487584Y-117077902D01*
X111537924Y-116953642D01*
X111592593Y-116820798D01*
X111649782Y-116683673D01*
X111707684Y-116546568D01*
X111764490Y-116413785D01*
X111818394Y-116289626D01*
X111867588Y-116178394D01*
X111910263Y-116084391D01*
X111944613Y-116011918D01*
X111968829Y-115965278D01*
X111981103Y-115948774D01*
X111991311Y-115951009D01*
X112031414Y-115967074D01*
X112090682Y-115995241D01*
X112160381Y-116031480D01*
X112313371Y-116114200D01*
X112495627Y-115990925D01*
X112549473Y-115954421D01*
X112649626Y-115886216D01*
X112749475Y-115817902D01*
X112833789Y-115759883D01*
X112880321Y-115728264D01*
X112940800Y-115688980D01*
X112985643Y-115662088D01*
X113007545Y-115652117D01*
X113016955Y-115656350D01*
G37*
%TD*%
M02*
