M48
; DRILL file {KiCad 9.0.7} date 2026-02-18T14:42:39-0500
; FORMAT={-:-/ absolute / metric / decimal}
; #@! TF.CreationDate,2026-02-18T14:42:39-05:00
; #@! TF.GenerationSoftware,Kicad,Pcbnew,9.0.7
; #@! TF.FileFunction,Plated,1,2,PTH
FMAT,2
METRIC
; #@! TA.AperFunction,Plated,PTH,ViaDrill
T1C0.400
; #@! TA.AperFunction,Plated,PTH,ComponentDrill
T2C0.480
; #@! TA.AperFunction,Plated,PTH,ComponentDrill
T3C0.559
; #@! TA.AperFunction,Plated,PTH,ComponentDrill
T4C0.750
; #@! TA.AperFunction,Plated,PTH,ComponentDrill
T5C0.800
; #@! TA.AperFunction,Plated,PTH,ComponentDrill
T6C0.991
; #@! TA.AperFunction,Plated,PTH,ComponentDrill
T7C1.000
; #@! TA.AperFunction,Plated,PTH,ComponentDrill
T8C1.100
; #@! TA.AperFunction,Plated,PTH,ComponentDrill
T9C1.854
; #@! TA.AperFunction,Plated,PTH,ComponentDrill
T10C2.200
%
G90
G05
T1
X125.1Y-72.25
X130.6Y-103.25
X131.329Y-136.122
X131.35Y-104.25
X133.6Y-103.5
X134.631Y-125.962
X135.85Y-74.75
X137.6Y-73.5
X138.06Y-126.216
X141.35Y-67.5
X141.6Y-83.0
X148.8Y-128.0
X152.538Y-116.873
X153.128Y-113.973
X154.6Y-107.0
X155.6Y-120.5
X156.312Y-118.288
X157.1Y-68.4
X157.1Y-85.0
X157.56Y-119.507
X157.8Y-123.0
X160.1Y-111.0
X163.1Y-122.5
X165.6Y-122.5
X171.35Y-68.0
X172.9Y-81.7
X173.912Y-63.438
X174.1Y-113.0
X174.1Y-118.5
X174.15Y-114.95
X175.85Y-97.5
X177.1Y-96.75
T3
X157.35Y-76.5
X158.6Y-76.5
T4
X112.55Y-104.5
X112.55Y-106.5
X112.55Y-108.5
T5
X107.02Y-75.0
X107.02Y-78.0
X107.02Y-81.0
X107.02Y-84.0
X107.02Y-87.0
X107.02Y-90.0
X107.02Y-93.0
X107.02Y-96.0
X107.1Y-71.5
X107.18Y-61.05
X107.18Y-64.5
X107.18Y-68.0
X112.1Y-71.5
X112.18Y-61.05
X112.18Y-64.5
X112.18Y-68.0
X117.18Y-75.0
X117.18Y-78.0
X117.18Y-81.0
X117.18Y-84.0
X117.18Y-87.0
X117.18Y-90.0
X117.18Y-93.0
X117.18Y-96.0
X128.35Y-61.92
X128.35Y-72.08
X131.35Y-61.92
X131.35Y-72.08
X134.35Y-61.92
X134.35Y-72.08
X143.8Y-61.92
X143.8Y-72.08
X145.807Y-133.891
X146.8Y-61.92
X146.8Y-72.08
X148.347Y-133.891
X150.887Y-133.891
X153.427Y-133.891
X156.02Y-88.0
X166.18Y-88.0
X171.94Y-93.5
X171.94Y-96.5
X174.85Y-99.67
X174.85Y-109.83
X177.85Y-99.67
X177.85Y-109.83
X178.6Y-63.92
X178.6Y-74.08
X181.6Y-63.92
X181.6Y-74.08
X182.1Y-93.5
X182.1Y-96.5
T6
X120.6Y-76.46
X120.6Y-79.0
X120.6Y-81.54
X120.6Y-84.08
X120.6Y-86.62
X120.6Y-89.16
X120.6Y-91.7
X121.982Y-108.387
X121.982Y-110.927
X121.982Y-113.467
X121.982Y-116.007
X121.982Y-118.547
X124.522Y-108.387
X124.522Y-110.927
X124.522Y-113.467
X124.522Y-116.007
X124.522Y-118.547
X128.22Y-76.46
X128.22Y-79.0
X128.22Y-81.54
X128.22Y-84.08
X128.22Y-86.62
X128.22Y-89.16
X128.22Y-91.7
T7
X155.275Y-128.475
X157.815Y-128.475
X160.355Y-128.475
X160.56Y-135.5
X162.895Y-128.475
X163.1Y-135.5
X165.435Y-128.475
X167.975Y-128.475
X168.6Y-135.225
X168.6Y-137.765
T8
X134.85Y-115.25
X134.85Y-119.75
X141.35Y-115.25
X141.35Y-119.75
X145.1Y-78.0
X145.1Y-82.5
X151.6Y-78.0
X151.6Y-82.5
T9
X173.168Y-127.0
X173.168Y-131.7
X173.168Y-136.4
T10
X106.1Y-137.0
X181.1Y-59.0
T2
X179.74Y-81.2G85X180.46Y-81.2
G05
X179.74Y-91.0G85X180.46Y-91.0
G05
X182.74Y-81.2G85X183.46Y-81.2
G05
X182.74Y-91.0G85X183.46Y-91.0
G05
M30
